<svg width="76" height="52" viewBox="0 0 76 52" fill="none" xmlns="http://www.w3.org/2000/svg">
<path d="M5.97088 30.8175C2.22388 30.8175 0.350387 28.91 0.350387 25.0948C0.350387 23.9821 0.611541 22.6309 1.13385 21.0413C1.67887 19.4516 2.47368 17.8052 3.5183 16.1021C4.56292 14.3762 5.74379 12.7752 7.06091 11.2991C8.37804 9.82301 9.92225 8.60807 11.6936 7.65429C13.4649 6.70051 15.2475 6.22362 17.0415 6.22362C17.8818 6.22362 18.529 6.32581 18.9832 6.53019C19.4373 6.71186 19.6758 6.8027 19.6985 6.8027C19.7439 6.8027 20.0278 6.68916 20.5501 6.46207C21.0951 6.23497 21.731 6.12143 22.4577 6.12143C23.2071 6.12143 23.5817 6.33717 23.5817 6.76864C23.5817 7.1774 23.1389 8.08576 22.2533 9.49372C21.3903 10.9017 20.3457 12.2529 19.1194 13.5473C17.8931 14.8417 16.9166 15.4889 16.19 15.4889C16.0991 15.5116 15.9856 15.523 15.8493 15.523C15.4178 15.523 15.2021 15.3981 15.2021 15.1483C15.2021 15.1029 15.3611 14.8531 15.679 14.3989C15.9969 13.922 16.3149 13.2975 16.6328 12.5254C16.9507 11.7306 17.1097 11.0947 17.1097 10.6178C17.1097 10.1409 17.087 9.8003 17.0415 9.59591C16.9961 9.39153 16.8372 9.15309 16.5647 8.88058C16.3149 8.60807 15.9629 8.47182 15.5087 8.47182C14.2824 8.47182 12.8177 9.40289 11.1145 11.265C9.43401 13.1272 7.98063 15.3186 6.75434 17.8393C5.55076 20.3373 4.94897 22.4606 4.94897 24.2092C4.94897 26.2984 5.90275 27.343 7.81031 27.343C10.0812 27.343 12.284 25.8783 14.4186 22.9488C14.5095 22.7672 14.6003 22.6763 14.6912 22.6763C14.8047 22.6763 14.8842 22.6877 14.9296 22.7104C14.9977 22.7104 15.0772 22.7785 15.168 22.9148C15.2816 23.0283 15.3384 23.2554 15.3384 23.596C15.3384 23.9367 15.0999 24.5044 14.623 25.2992C14.1688 26.094 13.5557 26.9116 12.7836 27.7518C12.0115 28.592 11.0123 29.3187 9.786 29.9319C8.55971 30.5223 7.288 30.8175 5.97088 30.8175ZM14.7524 31.2944C14.7524 30.3861 15.1271 28.9781 15.8765 27.0705C16.6259 25.1403 17.4661 23.2668 18.3972 21.45C19.3282 19.6333 20.5886 17.3965 22.1782 14.7395C24.54 10.8108 26.9698 6.91625 29.4678 3.05571C29.8539 2.44256 30.4557 1.94296 31.2732 1.55691C32.0907 1.17086 32.8288 0.977828 33.4873 0.977828C34.1459 0.977828 34.4865 1.1595 34.5092 1.52285C34.5092 1.63639 34.4411 1.76129 34.3049 1.89755C33.5327 2.60153 32.2383 4.23658 30.4216 6.8027C28.6049 9.34612 26.6746 12.2642 24.6308 15.557C22.6097 18.8499 20.827 22.3243 19.2828 25.9805C17.7613 29.6367 17.0006 32.6229 17.0006 34.9392C17.0006 35.2799 16.8984 35.4502 16.694 35.4502C16.3079 35.4502 15.9787 35.3026 15.7061 35.0073C15.4336 34.7348 15.2406 34.3828 15.1271 33.9514C14.8773 33.0884 14.7524 32.2028 14.7524 31.2944ZM22.6849 30.4428C22.1626 30.193 21.7311 29.7502 21.3905 29.1143C21.0726 28.4785 20.9136 27.695 20.9136 26.764C20.9136 25.3106 21.3791 23.7891 22.3102 22.1994C23.264 20.6098 24.5925 19.2473 26.2957 18.1118C28.0215 16.9764 29.8383 16.4086 31.7458 16.4086C32.6315 16.4086 33.3695 16.6471 33.96 17.124C34.5504 17.6009 34.8456 18.0777 34.8456 18.5546C34.8456 19.0088 34.7775 19.3722 34.6412 19.6447C34.505 19.9172 34.4369 20.0989 34.4369 20.1897C34.4369 20.4622 34.6526 20.5985 35.0841 20.5985C35.5155 20.5985 35.8448 20.5417 36.0719 20.4281C36.299 20.3146 36.4352 20.2578 36.4807 20.2578C36.6623 20.2578 36.7532 20.4963 36.7532 20.9732C36.7532 21.4273 36.5261 21.9723 36.0719 22.6082C35.6177 23.2213 35.0614 23.6755 34.4028 23.9707C34.312 24.1524 34.1871 24.4136 34.0281 24.7542C33.8691 25.0721 33.4944 25.6399 32.904 26.4574C32.3136 27.2522 31.6777 27.9675 30.9964 28.6034C30.3379 29.2165 29.4522 29.7729 28.3395 30.2725C27.2494 30.7948 26.2502 31.056 25.3419 31.056C24.4335 31.056 23.5479 30.8516 22.6849 30.4428ZM30.2811 24.5839C30.2811 24.4022 30.1789 24.3114 29.9745 24.3114C29.6793 24.3114 29.3387 24.3795 28.9526 24.5158C28.5893 24.652 28.3849 24.7201 28.3395 24.7201C28.2032 24.7201 28.1351 24.618 28.1351 24.4136C28.1351 23.5279 28.453 22.7672 29.0889 22.1313C29.3387 21.8588 29.702 21.6317 30.1789 21.45C30.6558 21.2457 31.0191 21.0186 31.2689 20.7688C31.5414 20.4963 31.6777 20.0421 31.6777 19.4062C31.6777 18.6341 31.2689 18.2481 30.4514 18.2481C28.998 18.2481 27.6128 19.2813 26.2957 21.3479C24.9785 23.3917 24.32 25.2197 24.32 26.8321C24.32 27.3771 24.5016 27.8426 24.865 28.2287C25.251 28.6147 25.7052 28.8078 26.2275 28.8078C27.4084 28.8078 28.3735 28.3195 29.1229 27.343C29.895 26.3438 30.2811 25.4241 30.2811 24.5839ZM52.8237 8.23337L54.4929 8.16524C54.7199 8.16524 54.8335 8.21066 54.8335 8.3015C54.8335 8.39234 54.8108 8.50588 54.7654 8.64213C54.7199 8.77839 54.6178 8.94871 54.4588 9.15309C54.3225 9.35747 54.1522 9.53914 53.9478 9.69811C53.4028 10.1296 52.7215 10.3453 51.904 10.3453C51.1092 10.3453 50.5188 10.368 50.1327 10.4134C49.7694 10.4589 49.4514 10.5724 49.1789 10.7541C48.9064 10.9357 48.7248 11.072 48.6339 11.1628C48.5431 11.2537 48.3841 11.4808 48.157 11.8441C47.9299 12.2075 47.771 12.4573 47.6801 12.5935C46.4766 14.274 44.5236 17.4419 41.8212 22.0972C39.1415 26.7526 37.4724 30.352 36.8139 32.8954C36.7457 33.1225 36.53 33.236 36.1666 33.236C35.826 33.236 35.3491 32.9408 34.736 32.3504C34.1228 31.76 33.8163 31.1582 33.8163 30.545C33.8163 29.9319 34.736 28.1038 36.5754 25.0608C38.4375 22.0178 40.2997 19.0315 42.1618 16.1021C44.024 13.1499 44.955 11.5148 44.955 11.1969C44.955 10.8563 44.8188 10.6519 44.5463 10.5838C44.2738 10.4929 43.7969 10.4475 43.1156 10.4475H41.9915C41.6963 10.4475 41.5487 10.3113 41.5487 10.0387C41.5487 9.76623 41.6736 9.48237 41.9234 9.18715C42.1959 8.86923 42.5933 8.59672 43.1156 8.36963C43.6606 8.14253 44.2056 7.91544 44.7507 7.68835C45.3184 7.46126 46.0451 6.95031 46.9307 6.15549C47.8391 5.36068 48.7475 4.33877 49.6558 3.08977C50.2235 2.31766 51.2 1.93161 52.5853 1.93161C53.0622 1.93161 53.3006 2.07922 53.3006 2.37444C53.3006 2.55611 52.7897 3.38499 51.7678 4.86108C50.7459 6.33717 50.2349 7.26824 50.2349 7.65429C50.2349 8.01764 50.5755 8.19931 51.2568 8.19931C51.5293 8.22202 52.0516 8.23337 52.8237 8.23337ZM57.2847 17.3965C58.2612 17.3965 58.7495 17.9642 58.7495 19.0997C58.7495 20.2351 58.3521 21.6658 57.5572 23.3917C56.3991 25.8215 55.082 27.9221 53.6059 29.6934C52.9019 30.5337 52.0162 30.9538 50.9489 30.9538C50.6083 30.9538 50.438 30.8629 50.438 30.6813L50.5742 30.3066C51.6415 28.7396 52.584 27.1273 53.4015 25.4695C54.2417 23.7891 54.6618 22.5741 54.6618 21.8247C54.6618 21.6885 54.6164 21.5749 54.5256 21.4841C54.4575 21.3933 54.3326 21.3365 54.1509 21.3138C53.2198 21.3138 51.9595 22.0745 50.3698 23.596C48.8029 25.1176 47.4404 26.6504 46.2822 28.1946C45.1467 29.7388 44.4087 30.8062 44.0681 31.3966C43.7501 32.0098 43.4209 32.3731 43.0802 32.4866C42.7396 32.6229 42.1832 32.691 41.4111 32.691C40.639 32.691 40.2529 32.5548 40.2529 32.2823C40.2529 32.1914 40.3665 31.9757 40.5936 31.6351C40.798 31.2944 41.6041 29.7616 43.0121 27.0365C44.4428 24.3114 45.9416 21.5409 47.5085 18.725C49.0981 15.8863 50.824 12.9909 52.6861 10.0387C54.571 7.08656 56.4445 4.6794 58.3066 2.81726C60.1915 0.932411 61.8265 -0.010015 63.2118 -0.010015C64.2791 -0.010015 64.8128 0.614484 64.8128 1.86348C64.8128 4.27064 63.7114 6.84812 61.5086 9.59591C59.3285 12.3437 57.3301 14.1377 55.5134 14.978C55.1047 15.1596 54.6732 15.2505 54.219 15.2505C53.7875 15.2505 53.5718 15.1483 53.5718 14.9439L53.7762 14.6033C56.0017 13.059 57.7616 11.2764 59.056 9.25528C60.3732 7.23417 61.0317 5.81486 61.0317 4.99733C61.0317 4.72482 60.9977 4.54315 60.9295 4.45231C60.8614 4.33877 60.7024 4.282 60.4526 4.282C59.6351 4.282 58.2953 5.61048 56.4331 8.26744C54.5937 10.9244 52.9359 13.6608 51.4599 16.4768C49.9838 19.2927 49.2457 21.0072 49.2457 21.6204C49.2457 21.8702 49.3252 21.9951 49.4842 21.9951C49.6658 21.9951 49.9043 21.8815 50.1995 21.6544C50.5401 21.3365 50.9716 20.9391 51.4939 20.4622C52.0389 19.9853 52.9359 19.3608 54.1849 18.5887C55.4567 17.7939 56.4899 17.3965 57.2847 17.3965ZM50.294 51.3579C49.3402 51.3579 48.8633 50.563 48.8633 48.9734C48.8633 47.3838 49.3288 45.6125 50.2599 43.6595C51.191 41.7292 52.3151 39.9466 53.6322 38.3115C54.9266 36.6992 56.3119 35.3253 57.788 34.1898C59.2641 33.0544 60.5017 32.4866 61.5009 32.4866C61.8415 32.4866 62.0119 32.5661 62.0119 32.7251C62.0119 32.884 61.8756 33.0317 61.6031 33.1679C60.7401 33.6221 59.6388 34.5872 58.2989 36.0633C56.9818 37.5621 55.7896 39.2653 54.7222 41.1729C53.6322 43.1031 53.0872 44.7268 53.0872 46.0439C53.0872 46.6117 53.2916 46.8955 53.7003 46.8955C54.4952 46.8955 55.6987 45.7828 57.3111 43.5573C59.9226 39.992 62.5909 35.4502 65.316 29.9319C66.1335 28.2968 66.5423 27.3203 66.5423 27.0024C66.5423 26.6845 66.4515 26.5255 66.2698 26.5255C66.0427 26.5255 65.8156 26.6391 65.5885 26.8662C63.0451 29.0462 61.0694 30.1363 59.6615 30.1363C58.6396 30.1363 58.1286 29.5912 58.1286 28.5012C58.1286 27.3885 58.7304 25.6853 59.934 23.3917C61.1603 21.0753 62.3979 19.2927 63.6469 18.0437C63.9194 17.7712 64.2941 17.5554 64.771 17.3965C65.2479 17.2148 65.7361 17.124 66.2357 17.124C66.758 17.124 67.0192 17.2375 67.0192 17.4646C67.0192 17.5554 66.6559 18.0777 65.9292 19.0315C63.7264 21.961 62.625 24.0502 62.625 25.2992C62.625 25.8442 62.8634 26.1168 63.3403 26.1168C64.1806 26.1168 65.475 25.2992 67.2236 23.6642C68.9949 22.0291 70.5391 20.1102 71.8562 17.9074C72.265 17.0899 73.1734 16.6811 74.5813 16.6811C75.2626 16.6811 75.6032 16.8174 75.6032 17.0899C75.6032 17.158 75.5692 17.2489 75.501 17.3624C73.2983 20.9959 71.2885 24.5044 69.4718 27.8881C67.6551 31.249 66.1903 33.8378 65.0776 35.6546C63.9875 37.494 62.7613 39.4015 61.3987 41.3772C60.0589 43.3529 58.7645 45.0447 57.5155 46.4527C56.2892 47.8834 55.0402 49.0529 53.7685 49.9613C52.4741 50.8923 51.3159 51.3579 50.294 51.3579Z" fill="#F83758"/>
</svg>
