<svg width="96" height="52" viewBox="0 0 96 52" fill="none" xmlns="http://www.w3.org/2000/svg">
<path d="M1 38L60.4033 37.626" stroke="#807D7E" stroke-width="0.420324" stroke-miterlimit="10" stroke-linecap="round" stroke-linejoin="round"/>
<path d="M71.9788 37.813H77.007" stroke="#807D7E" stroke-width="0.420324" stroke-miterlimit="10" stroke-linecap="round" stroke-linejoin="round"/>
<path d="M6.95049 45.2618C6.78688 45.2618 6.59792 45.1972 6.38207 45.0689C6.16699 44.9399 5.93809 44.7694 5.6969 44.5566C5.4557 44.3438 5.21835 44.1126 4.98407 43.8622C4.75056 43.6126 4.53471 43.3637 4.33807 43.1156C4.14142 42.8682 3.97627 42.6478 3.84262 42.455L2.76262 44.7863C2.71039 44.9 2.62897 44.9806 2.51759 45.0275C2.40621 45.0743 2.28561 45.1027 2.1558 45.1127C2.02598 45.1227 1.8977 45.1273 1.77173 45.1273C1.86775 44.9891 1.96683 44.8301 2.06669 44.6519C2.16732 44.4736 2.28561 44.2586 2.42311 44.0058C2.5606 43.7531 2.72191 43.4466 2.9078 43.0849C3.09369 42.7238 3.31414 42.2914 3.5707 41.789C3.82649 41.2867 4.12913 40.6967 4.47863 40.0185C4.50091 39.9785 4.53087 39.9232 4.56774 39.8518C4.60461 39.7803 4.62381 39.7143 4.62381 39.6551C4.62381 39.6006 4.60538 39.5576 4.56774 39.5253C4.53087 39.4931 4.4602 39.4769 4.3565 39.4769C4.17829 39.4769 4.00546 39.5253 3.83878 39.6213C3.67209 39.7174 3.52307 39.8403 3.39326 39.9893C3.26344 40.1375 3.16128 40.2911 3.08677 40.4494C3.01227 40.6076 2.97539 40.749 2.97539 40.8726C2.97539 40.9671 2.99383 41.0508 3.0307 41.1253C2.78567 41.1253 2.61284 41.0846 2.51298 41.0032C2.41235 40.9218 2.36242 40.8212 2.36242 40.7021C2.36242 40.5339 2.43616 40.3657 2.58518 40.1974C2.73343 40.0292 2.9247 39.8741 3.15898 39.7335C3.39326 39.5921 3.6383 39.48 3.89408 39.3955C4.14987 39.3118 4.38185 39.2695 4.59001 39.2695C4.7905 39.2695 4.92569 39.3064 4.99636 39.3809C5.06702 39.4554 5.10236 39.5368 5.10236 39.6259C5.10236 39.6805 5.09314 39.735 5.07471 39.7896C5.05627 39.8441 5.03553 39.8963 5.01326 39.9455L4.07767 41.9649C4.18137 41.8658 4.31733 41.7744 4.48401 41.6899C4.6507 41.6062 4.83505 41.5094 5.03553 41.4003C5.36967 41.2221 5.72762 41.014 6.11015 40.7766C6.49268 40.5393 6.85831 40.2888 7.20705 40.0269C7.55578 39.7642 7.84537 39.5123 8.07581 39.2695C8.11268 39.2995 8.1388 39.351 8.15416 39.4255C8.16875 39.5 8.17644 39.5568 8.17644 39.596C8.17644 39.7496 8.08195 39.9178 7.89222 40.1007C7.7025 40.2835 7.45593 40.4732 7.15174 40.6683C6.84756 40.8642 6.51342 41.057 6.14933 41.2475C5.78523 41.438 5.42728 41.6177 5.07471 41.7859C4.72213 41.9542 4.40413 42.1001 4.12222 42.2238C4.34498 42.4765 4.56236 42.7161 4.7736 42.9443C4.98483 43.1717 5.21528 43.3944 5.46415 43.6126C5.71303 43.8307 6.00415 44.0535 6.33829 44.2808C6.67243 44.5082 7.07723 44.7532 7.55194 45.0159C7.49971 45.0805 7.41829 45.1373 7.30691 45.1865C7.19553 45.2372 7.07647 45.2618 6.95049 45.2618Z" fill="#F83758"/>
<path d="M12.9091 44.9796C12.4559 44.9796 12.1203 44.8882 11.9013 44.7046C11.6824 44.5218 11.5726 44.3013 11.5726 44.044C11.253 44.3259 10.8859 44.5464 10.4703 44.7046C10.0547 44.8628 9.63458 44.9419 9.2121 44.9419C8.7589 44.9419 8.41939 44.859 8.19279 44.6931C7.96619 44.5272 7.85327 44.3228 7.85327 44.0809C7.85327 43.8581 7.937 43.6231 8.10368 43.3757C8.27114 43.1284 8.4939 42.8956 8.77196 42.6775C9.05002 42.4601 9.35651 42.2827 9.69065 42.1467C10.0248 42.0107 10.3551 41.9424 10.6823 41.9424C10.8528 41.9424 11.0111 41.9723 11.1555 42.0315C11.3007 42.0906 11.3729 42.212 11.3729 42.3956C11.3729 42.5838 11.2891 42.7604 11.1225 42.9264C10.9558 43.0923 10.7361 43.2398 10.4657 43.368C10.1945 43.4971 9.89728 43.6016 9.57466 43.6837C9.25205 43.7659 8.9302 43.8159 8.61142 43.8358C8.59683 43.8858 8.58531 43.9326 8.57762 43.9772C8.56994 44.0217 8.5661 44.064 8.5661 44.1031C8.5661 44.2022 8.59222 44.2998 8.64445 44.3966C8.69592 44.4934 8.78502 44.5725 8.91176 44.6339C9.03774 44.6961 9.21594 44.7269 9.44638 44.7269C9.83967 44.7269 10.2299 44.6339 10.6163 44.4488C11.0019 44.2629 11.3398 44.034 11.6294 43.7621C11.6962 43.5593 11.8153 43.3565 11.9858 43.153C12.1564 42.9502 12.363 42.7658 12.6042 42.5999C12.8454 42.434 13.1073 42.3003 13.3892 42.1989C13.6711 42.0975 13.9576 42.0468 14.2472 42.0468C14.4178 42.0468 14.576 42.0768 14.7204 42.136C14.8648 42.1951 14.9378 42.3165 14.9378 42.5C14.9378 42.7528 14.8095 42.974 14.5537 43.1645C14.2979 43.355 13.9692 43.5071 13.5682 43.6215C13.1672 43.7352 12.7555 43.8074 12.3323 43.8366C12.3177 43.8865 12.3061 43.9334 12.2985 43.9779C12.2908 44.0225 12.2869 44.0647 12.2869 44.1039C12.2869 44.203 12.3108 44.3044 12.3591 44.4081C12.4075 44.5118 12.4928 44.5971 12.6149 44.6639C12.7378 44.7307 12.9137 44.7637 13.1442 44.7637C13.4637 44.7637 13.7825 44.7008 14.102 44.5748C14.4216 44.4488 14.7181 44.2829 14.9931 44.077C15.2681 43.8719 15.4978 43.6499 15.6836 43.4126L15.8173 43.4794C15.6168 43.7767 15.3587 44.0379 15.043 44.2629C14.7273 44.488 14.3863 44.6639 14.0183 44.7899C13.6496 44.9166 13.2801 44.9796 12.9091 44.9796ZM8.66596 43.6945C8.86644 43.6499 9.09304 43.5847 9.34499 43.4979C9.59771 43.4111 9.84044 43.3089 10.0747 43.1898C10.309 43.0708 10.5018 42.9402 10.6539 42.7965C10.806 42.6529 10.882 42.5024 10.882 42.3434C10.882 42.2888 10.8674 42.2466 10.8375 42.2174C10.8075 42.1874 10.7445 42.1728 10.6485 42.1728C10.4703 42.1728 10.2806 42.2189 10.0801 42.3103C9.87961 42.4017 9.68681 42.5216 9.50092 42.6706C9.31503 42.8188 9.14835 42.9824 8.99933 43.1606C8.85108 43.3381 8.7397 43.5163 8.66596 43.6945ZM12.386 43.6945C12.5865 43.6499 12.8054 43.5908 13.0436 43.5163C13.2809 43.4418 13.5075 43.3542 13.7234 43.2528C13.9384 43.1514 14.1166 43.0354 14.258 42.9041C14.3985 42.7727 14.4692 42.6283 14.4692 42.4701C14.4692 42.4156 14.4508 42.3695 14.4131 42.3326C14.3763 42.2957 14.3094 42.2773 14.2127 42.2773C13.9753 42.2773 13.7356 42.3464 13.4945 42.4855C13.2533 42.6237 13.0343 42.8012 12.8369 43.0162C12.6403 43.2305 12.4897 43.4571 12.386 43.6945Z" fill="#F83758"/>
<path d="M14.7478 46.6949C14.6886 46.6949 14.631 46.6742 14.5749 46.632C14.5189 46.5897 14.4766 46.5452 14.4466 46.4983C14.4167 46.4514 14.4021 46.423 14.4021 46.413C14.5058 46.1703 14.608 45.9537 14.7086 45.7632C14.8092 45.5727 14.9091 45.3768 15.0097 45.1763C15.1095 44.9759 15.2086 44.7408 15.3047 44.4712C15.4014 44.2016 15.5013 43.8659 15.6058 43.4649C15.7095 43.064 15.8139 42.5662 15.9176 41.9724C15.9253 41.9279 15.9399 41.8956 15.9622 41.8757C15.9845 41.8557 16.0398 41.8457 16.1289 41.8457C16.3217 41.8457 16.4592 41.8818 16.5414 41.9532C16.6228 42.0247 16.6635 42.103 16.6635 42.1868C16.6635 42.2559 16.6412 42.3796 16.5967 42.5578C16.5521 42.736 16.4891 42.9464 16.4077 43.1892C16.5337 43.0256 16.6919 42.8596 16.8809 42.6914C17.0698 42.5232 17.2872 42.3819 17.5322 42.2682C17.7773 42.1545 18.0446 42.0977 18.3342 42.0977C18.6606 42.0977 18.9302 42.176 19.1415 42.3312C19.3527 42.4871 19.4587 42.6914 19.4587 42.9441C19.4587 43.1369 19.3934 43.3413 19.2636 43.5563C19.1338 43.7714 18.9518 43.975 18.7182 44.1655C18.4847 44.356 18.2074 44.5111 17.8887 44.6294C17.5691 44.7485 17.2165 44.8076 16.8309 44.8076C16.6374 44.8076 16.4822 44.793 16.3631 44.7631C16.2441 44.7331 16.1849 44.7039 16.1849 44.674C16.1849 44.654 16.2126 44.6433 16.2687 44.6402C16.3247 44.6379 16.3893 44.6363 16.4638 44.6363C16.761 44.6363 17.0445 44.5879 17.3156 44.4912C17.5868 44.3944 17.8295 44.2669 18.0454 44.1086C18.2604 43.9504 18.4294 43.7745 18.5523 43.5817C18.6745 43.3889 18.7359 43.1984 18.7359 43.0102C18.7359 42.852 18.686 42.7168 18.5854 42.6054C18.4855 42.494 18.3234 42.4387 18.1007 42.4387C17.9079 42.4387 17.7166 42.4794 17.5269 42.5608C17.3371 42.6423 17.1589 42.7467 16.9922 42.8727C16.8248 42.9987 16.6765 43.13 16.5467 43.266C16.4169 43.4019 16.3186 43.5248 16.2518 43.6332C16.1181 44.0042 15.9845 44.3621 15.8508 44.7062C15.7171 45.0504 15.5889 45.3622 15.4667 45.6418C15.3438 45.9214 15.2332 46.1503 15.1326 46.3285C15.0327 46.5067 14.949 46.6158 14.8822 46.655C14.8438 46.6826 14.7992 46.6949 14.7478 46.6949Z" fill="#F83758"/>
<path d="M23.502 44.8083C23.2124 44.8083 22.9966 44.7476 22.856 44.6263C22.7147 44.5049 22.6448 44.3574 22.6448 44.1846C22.6448 44.0709 22.6763 43.9273 22.7393 43.7537C22.8022 43.5808 22.886 43.3988 22.9897 43.2083C23.0934 43.0178 23.214 42.838 23.3515 42.6698C23.489 42.5016 23.6357 42.3641 23.7916 42.2573C23.9475 42.1513 24.0996 42.0976 24.2486 42.0976C24.3155 42.0976 24.3731 42.1114 24.4215 42.1383C24.4699 42.1652 24.4937 42.2066 24.4937 42.2604C24.4937 42.3196 24.4361 42.4163 24.3208 42.55C24.2056 42.6836 24.0704 42.8373 23.9145 43.0101C23.7586 43.1837 23.6234 43.365 23.5082 43.5555C23.3929 43.746 23.3353 43.928 23.3353 44.1016C23.3353 44.2798 23.3799 44.3989 23.469 44.458C23.5581 44.5172 23.6956 44.5471 23.8815 44.5471C24.1342 44.5471 24.403 44.4634 24.6888 44.2944C24.9745 44.1262 25.2772 43.832 25.5967 43.4111L25.6966 43.4856C25.4815 43.9111 25.1712 44.2383 24.7664 44.4657C24.3608 44.6946 23.9398 44.8083 23.502 44.8083ZM24.8378 41.4078C24.7187 41.4078 24.6135 41.3878 24.5206 41.3486C24.4276 41.3087 24.3815 41.2472 24.3815 41.1627C24.3815 41.059 24.4722 40.9684 24.6542 40.8916C24.8363 40.8148 25.016 40.7764 25.1942 40.7764C25.3056 40.7764 25.3947 40.794 25.4615 40.8286C25.5284 40.8632 25.5614 40.9231 25.5614 41.0068C25.5614 41.1005 25.4853 41.1912 25.3332 41.278C25.1819 41.3648 25.0168 41.4078 24.8378 41.4078Z" fill="#F83758"/>
<path d="M26.33 44.9573C26.0105 44.9573 25.7654 44.8951 25.5949 44.7715C25.4244 44.6478 25.3391 44.465 25.3391 44.2222C25.3391 44.0049 25.4006 43.736 25.5227 43.4165C25.6448 43.0969 25.7992 42.7697 25.9851 42.4325C25.9106 42.4225 25.8407 42.414 25.7739 42.4064C25.7071 42.3987 25.6441 42.3879 25.5849 42.3733V42.2397C25.6441 42.2443 25.7147 42.2497 25.7962 42.2543C25.8776 42.2589 25.9705 42.2643 26.0742 42.2689C26.2301 42.0016 26.3976 41.7427 26.575 41.4931C26.7532 41.2434 26.9299 41.0207 27.1043 40.8248C27.2787 40.6297 27.4461 40.473 27.6059 40.357C27.7656 40.241 27.9008 40.1826 28.0122 40.1826C28.0714 40.1826 28.1251 40.1964 28.1735 40.2233C28.2219 40.2502 28.2457 40.2917 28.2457 40.3455C28.2457 40.43 28.1682 40.5667 28.0122 40.7579C27.8563 40.9484 27.6635 41.175 27.433 41.437C27.2026 41.6997 26.9798 41.9839 26.7648 42.2911C26.8316 42.2911 26.9 42.2911 26.9706 42.2911C27.0413 42.2911 27.1097 42.2911 27.1765 42.2911C27.4215 42.2911 27.6796 42.2888 27.9508 42.2835C28.2219 42.2789 28.4946 42.2658 28.7696 42.2466V42.3802C28.361 42.4102 27.9953 42.4325 27.6727 42.4471C27.3501 42.4617 27.062 42.4694 26.8093 42.4694C26.7794 42.4694 26.7517 42.4694 26.7256 42.4694C26.6995 42.4694 26.6718 42.4694 26.6419 42.4694C26.4713 42.7321 26.3262 43.0017 26.2079 43.279C26.0888 43.5563 26.0297 43.8259 26.0297 44.0886C26.0297 44.3014 26.0781 44.4534 26.1741 44.5449C26.2701 44.6363 26.4299 44.6823 26.6534 44.6823C27.0398 44.6823 27.4185 44.5687 27.7895 44.3405C28.1605 44.1132 28.4869 43.8036 28.7696 43.4126L28.914 43.4871C28.7358 43.7644 28.5107 44.0141 28.2404 44.2368C27.9692 44.4596 27.6704 44.6355 27.3439 44.7638C27.0167 44.8928 26.6795 44.9573 26.33 44.9573Z" fill="#F83758"/>
<path d="M32.6455 45.031C32.2891 45.031 31.9918 44.9519 31.7545 44.7937C31.5171 44.6354 31.3981 44.3981 31.3981 44.0808C31.3981 43.8335 31.4703 43.5923 31.6155 43.3565C31.7599 43.1214 31.9511 42.9102 32.1893 42.722C32.4266 42.5338 32.6901 42.384 32.9797 42.2726C33.2692 42.1613 33.555 42.106 33.8377 42.106C34.1418 42.106 34.35 42.1651 34.4614 42.2842C34.5728 42.4032 34.6281 42.5269 34.6281 42.6552C34.6281 42.7988 34.5782 42.9248 34.4775 43.0339C34.3777 43.1429 34.2417 43.1975 34.0712 43.1975C33.9452 43.1975 33.8377 43.1606 33.7478 43.0861C33.8592 43.0469 33.956 42.9663 34.0374 42.8449C34.1188 42.7235 34.1603 42.6083 34.1603 42.4992C34.1603 42.4401 34.1434 42.394 34.1104 42.3617C34.0766 42.3295 34.012 42.3134 33.9153 42.3134C33.7148 42.3134 33.5089 42.3725 33.2969 42.4916C33.0857 42.6106 32.8883 42.7635 32.707 42.9517C32.5249 43.1399 32.3767 43.338 32.2615 43.5454C32.1462 43.7536 32.0886 43.9487 32.0886 44.1323C32.0886 44.2859 32.1447 44.4265 32.2561 44.5555C32.3675 44.6838 32.5825 44.7483 32.9021 44.7483C33.1993 44.7483 33.4982 44.6938 33.7985 44.5847C34.0988 44.4757 34.3792 44.3197 34.6396 44.1169C34.8992 43.9141 35.1074 43.676 35.2633 43.4041L35.4077 43.4786C35.2372 43.7759 35.0029 44.0417 34.7064 44.2767C34.4092 44.5118 34.0827 44.6961 33.7263 44.8298C33.3691 44.9642 33.0089 45.031 32.6455 45.031Z" fill="#F83758"/>
<path d="M35.9758 44.8383C35.6562 44.8383 35.4281 44.7653 35.2906 44.6194C35.1531 44.4734 35.0847 44.2914 35.0847 44.074C35.0847 43.8367 35.1515 43.554 35.2852 43.2275C35.4189 42.9011 35.5955 42.5569 35.8144 42.1951C36.0334 41.8341 36.273 41.4816 36.5326 41.1367C36.7923 40.7925 37.0519 40.4799 37.3123 40.1972C37.5719 39.9153 37.8116 39.6895 38.0305 39.5213C38.2494 39.353 38.4223 39.2686 38.5482 39.2686C38.6297 39.2686 38.6965 39.2993 38.7487 39.3615C38.8009 39.4237 38.8417 39.4975 38.8716 39.5843C38.9008 39.6711 38.9162 39.7486 38.9162 39.8178C38.9162 39.9514 38.8662 40.1258 38.7656 40.3416C38.6658 40.5567 38.5244 40.7971 38.3424 41.0621C38.1603 41.3272 37.9453 41.5945 37.6964 41.8641C37.4475 42.1337 37.1763 42.3926 36.8837 42.6399C36.5903 42.8872 36.2807 43.1 35.9535 43.2782C35.9089 43.4119 35.8736 43.5417 35.8475 43.6684C35.8214 43.7944 35.8083 43.915 35.8083 44.0287C35.8083 44.2215 35.849 44.3651 35.9304 44.4596C36.0119 44.5533 36.1348 44.6009 36.2984 44.6009C36.4989 44.6009 36.6978 44.5418 36.8944 44.4227C37.0911 44.3037 37.277 44.1539 37.4513 43.9734C37.6257 43.7929 37.7763 43.6062 37.9022 43.4126L38.0689 43.4718C37.7717 43.8927 37.449 44.2253 37.0995 44.4704C36.7516 44.7162 36.3767 44.8383 35.9758 44.8383ZM36.0541 43.0263C36.3137 42.8527 36.5664 42.6537 36.8115 42.4287C37.0565 42.2036 37.2847 41.9693 37.4967 41.7274C37.7087 41.4846 37.8961 41.2496 38.0589 41.0222C38.2218 40.7948 38.3485 40.5905 38.4376 40.41C38.5267 40.2295 38.5713 40.0897 38.5713 39.9906C38.5713 39.9414 38.5621 39.9092 38.5436 39.8938C38.5252 39.8792 38.5083 39.8715 38.4937 39.8715C38.4345 39.8715 38.3324 39.9345 38.1872 40.0605C38.0428 40.1865 37.8738 40.3562 37.6802 40.569C37.4874 40.7818 37.2908 41.0245 37.0903 41.2964C36.8898 41.5684 36.6986 41.8533 36.5165 42.1506C36.3337 42.4471 36.1801 42.7398 36.0541 43.0263Z" fill="#F83758"/>
<path d="M38.2143 44.9642C37.9839 44.9642 37.7888 44.9135 37.6298 44.8121C37.47 44.7107 37.3901 44.5563 37.3901 44.3481C37.3901 44.1699 37.4493 43.9779 37.5683 43.7728C37.6866 43.5677 37.8503 43.3642 38.0584 43.1637C38.2666 42.9632 38.5024 42.7804 38.7659 42.6145C39.0293 42.4485 39.3074 42.3164 39.6016 42.2173C39.895 42.1183 40.1861 42.0691 40.4757 42.0691C40.7653 42.0691 41.0065 42.1198 41.1993 42.2212C41.3921 42.3226 41.4889 42.4578 41.4889 42.626C41.4889 42.7497 41.439 42.8342 41.3384 42.8787C41.2377 42.9233 41.1064 42.9455 40.9428 42.9455C40.9574 42.9056 40.9704 42.8626 40.9819 42.8157C40.9935 42.7689 40.9988 42.7258 40.9988 42.6859C40.9988 42.5722 40.9581 42.4747 40.8767 42.3925C40.7945 42.3111 40.6539 42.2703 40.4535 42.2703C40.2453 42.2703 40.0341 42.3187 39.8182 42.4148C39.6031 42.5115 39.395 42.6398 39.1945 42.8011C38.994 42.9624 38.8158 43.1368 38.6599 43.325C38.5039 43.5132 38.3818 43.6991 38.2919 43.8819C38.2028 44.0647 38.1583 44.2283 38.1583 44.372C38.1583 44.5648 38.2581 44.6615 38.4594 44.6615C38.6299 44.6615 38.8158 44.6085 39.0163 44.5018C39.2168 44.3958 39.4226 44.259 39.6346 44.0931C39.8459 43.9272 40.0487 43.7551 40.2415 43.5769C40.4343 43.3987 40.6056 43.2351 40.7538 43.0869C40.783 43.0569 40.8022 43.0423 40.8091 43.0423C40.8537 43.0469 40.9113 43.0569 40.9819 43.0723C41.0526 43.0869 41.1141 43.1068 41.1655 43.1314C41.2178 43.156 41.2439 43.1883 41.2439 43.2282C41.2439 43.2728 41.2101 43.3334 41.1432 43.4103C41.0764 43.4871 41.0019 43.5746 40.9205 43.6737C40.8383 43.7728 40.7646 43.8734 40.6977 43.9748C40.6309 44.0762 40.5979 44.1715 40.5979 44.2606C40.5979 44.3351 40.6271 44.4081 40.687 44.4795C40.7461 44.5517 40.8429 44.587 40.9766 44.587C41.177 44.587 41.4405 44.4895 41.767 44.2936C42.0934 44.0985 42.4245 43.8051 42.7586 43.4133L42.87 43.4878C42.7141 43.7551 42.5136 43.9902 42.2686 44.193C42.0235 44.3958 41.7616 44.5548 41.4835 44.6685C41.2055 44.7821 40.932 44.839 40.6647 44.839C40.3897 44.839 40.1877 44.7844 40.0579 44.6754C39.9281 44.5663 39.8628 44.448 39.8628 44.319C39.8628 44.289 39.8666 44.256 39.8743 44.2191C39.8812 44.1822 39.8889 44.1438 39.8966 44.1039C39.577 44.3912 39.2859 44.6062 39.0224 44.7499C38.7582 44.8928 38.4886 44.9642 38.2143 44.9642Z" fill="#F83758"/>
<path d="M43.7053 44.9943C43.3565 44.9943 43.08 44.9436 42.8757 44.8422C42.6713 44.7408 42.5269 44.6156 42.4409 44.4674C42.3556 44.3191 42.3126 44.1701 42.3126 44.0219C42.3126 43.8736 42.3426 43.7592 42.4017 43.68C42.4616 43.6009 42.5338 43.5418 42.6191 43.5018C42.7044 43.4619 42.7858 43.4327 42.8641 43.4127C42.9425 43.3928 42.9955 43.3728 43.0254 43.3536C43.2482 43.19 43.4525 43.0195 43.6384 42.8412C43.8243 42.663 43.9872 42.4748 44.1285 42.2767V42.1876C44.1285 42.0047 44.1746 41.8742 44.2675 41.7973C44.3605 41.7205 44.4588 41.6821 44.5625 41.6821C44.6216 41.6821 44.6662 41.6921 44.6961 41.7121C44.7261 41.7321 44.7407 41.7543 44.7407 41.7789C44.7407 41.8035 44.7299 41.8434 44.7077 41.898C44.6854 41.9525 44.6739 42.0216 44.6739 42.1061C44.6739 42.2698 44.7223 42.4464 44.8183 42.6369C44.9151 42.8274 45.0111 43.0279 45.1079 43.2384C45.2039 43.4488 45.2523 43.6678 45.2523 43.8951C45.2523 43.9596 45.2469 44.0226 45.2354 44.0841C45.2246 44.1463 45.2077 44.2039 45.1854 44.2585C45.4451 44.2285 45.6901 44.1509 45.9205 44.0249C46.151 43.899 46.3737 43.6969 46.5888 43.4196L46.6887 43.4942C46.5473 43.7661 46.3361 43.9727 46.0542 44.114C45.7723 44.2554 45.4635 44.3429 45.1294 44.3775C45.0103 44.5903 44.8229 44.7462 44.5671 44.8453C44.3121 44.9452 44.024 44.9943 43.7053 44.9943ZM43.7275 44.7347C43.8166 44.7347 43.9357 44.7147 44.0839 44.6756C44.2322 44.6356 44.3474 44.5342 44.4296 44.3714C44.1177 44.3322 43.8412 44.25 43.6 44.1263C43.3588 44.0027 43.1783 43.879 43.06 43.7553C42.8964 43.7607 42.815 43.8467 42.815 44.015C42.815 44.1932 42.8949 44.3575 43.0546 44.5089C43.2129 44.6586 43.4379 44.7347 43.7275 44.7347ZM44.4849 44.2515C44.4995 44.2024 44.511 44.1501 44.5179 44.0956C44.5256 44.0411 44.5295 43.9765 44.5295 43.9028C44.5295 43.6701 44.4864 43.4389 44.4012 43.2084C44.3159 42.978 44.2437 42.7614 44.1838 42.5586C44.0133 42.7468 43.8328 42.9265 43.6438 43.097C43.4548 43.2676 43.2743 43.4104 43.1038 43.5241C43.2152 43.6824 43.388 43.8314 43.6215 43.9696C43.8558 44.1087 44.1431 44.2024 44.4849 44.2515Z" fill="#F83758"/>
<path d="M47.5473 44.9943C47.1986 44.9943 46.922 44.9436 46.7177 44.8422C46.5134 44.7408 46.369 44.6156 46.2829 44.4674C46.1977 44.3191 46.1547 44.1701 46.1547 44.0219C46.1547 43.8736 46.1846 43.7592 46.2438 43.68C46.3037 43.6009 46.3759 43.5418 46.4611 43.5018C46.5464 43.4619 46.6278 43.4327 46.7062 43.4127C46.7845 43.3928 46.8375 43.3728 46.8675 43.3536C47.0902 43.19 47.2946 43.0195 47.4805 42.8412C47.6663 42.663 47.8292 42.4748 47.9705 42.2767V42.1876C47.9705 42.0047 48.0166 41.8742 48.1096 41.7973C48.2025 41.7205 48.3008 41.6821 48.4045 41.6821C48.4637 41.6821 48.5082 41.6921 48.5382 41.7121C48.5681 41.7321 48.5827 41.7543 48.5827 41.7789C48.5827 41.8035 48.572 41.8434 48.5497 41.898C48.5274 41.9525 48.5159 42.0216 48.5159 42.1061C48.5159 42.2698 48.5643 42.4464 48.6603 42.6369C48.7571 42.8274 48.8531 43.0279 48.9499 43.2384C49.0459 43.4488 49.0943 43.6678 49.0943 43.8951C49.0943 43.9596 49.0889 44.0226 49.0774 44.0841C49.0667 44.1463 49.0498 44.2039 49.0275 44.2585C49.2871 44.2285 49.5321 44.1509 49.7626 44.0249C49.993 43.899 50.2158 43.6969 50.4309 43.4196L50.5307 43.4942C50.3894 43.7661 50.1781 43.9727 49.8962 44.114C49.6143 44.2554 49.3055 44.3429 48.9714 44.3775C48.8523 44.5903 48.6649 44.7462 48.4091 44.8453C48.1549 44.9452 47.8668 44.9943 47.5473 44.9943ZM47.5696 44.7347C47.6587 44.7347 47.7777 44.7147 47.926 44.6756C48.0742 44.6356 48.1894 44.5342 48.2716 44.3714C47.9598 44.3322 47.6832 44.25 47.4421 44.1263C47.2009 44.0027 47.0203 43.879 46.9021 43.7553C46.7384 43.7607 46.657 43.8467 46.657 44.015C46.657 44.1932 46.7369 44.3575 46.8967 44.5089C47.0557 44.6586 47.28 44.7347 47.5696 44.7347ZM48.327 44.2515C48.3415 44.2024 48.3531 44.1501 48.36 44.0956C48.3677 44.0411 48.3715 43.9765 48.3715 43.9028C48.3715 43.6701 48.3285 43.4389 48.2432 43.2084C48.158 42.978 48.0858 42.7614 48.0258 42.5586C47.8553 42.7468 47.6748 42.9265 47.4858 43.097C47.2969 43.2676 47.1164 43.4104 46.9458 43.5241C47.0572 43.6824 47.23 43.8314 47.4636 43.9696C47.6978 44.1087 47.9859 44.2024 48.327 44.2515Z" fill="#F83758"/>
<path d="M50.7 46.6948C50.5141 46.6948 50.3513 46.6617 50.2099 46.5949C50.0686 46.5281 49.9979 46.4305 49.9979 46.3015C49.9979 46.1432 50.0578 46.0019 50.1761 45.8782C50.2944 45.7546 50.4542 45.6409 50.6554 45.5364C50.8559 45.4327 51.0856 45.3336 51.346 45.2392C51.6056 45.1454 51.8768 45.051 52.1587 44.9572C52.2624 44.7744 52.3684 44.5701 52.4759 44.345C52.5835 44.12 52.6856 43.8711 52.7824 43.5992C52.5451 43.8565 52.2908 44.0777 52.0197 44.2636C51.7485 44.4495 51.4604 44.5417 51.1563 44.5417C51.0149 44.5417 50.8759 44.5209 50.7384 44.4787C50.6009 44.4365 50.488 44.3712 50.3989 44.2821C50.3098 44.193 50.2652 44.0793 50.2652 43.9402C50.2652 43.802 50.3006 43.6407 50.3712 43.4578C50.4419 43.275 50.5287 43.0968 50.6332 42.9232C50.7369 42.7504 50.8444 42.6068 50.9566 42.4923C51.0687 42.3778 51.1647 42.3218 51.2461 42.3218C51.2761 42.3218 51.3299 42.3295 51.4074 42.3441C51.4858 42.3586 51.5595 42.3802 51.6302 42.407C51.7009 42.4347 51.7362 42.4631 51.7362 42.4923C51.6694 42.5568 51.5949 42.6482 51.5135 42.7673C51.4313 42.8864 51.3521 43.0185 51.2738 43.1644C51.1962 43.3104 51.1309 43.4525 51.0787 43.5915C51.0265 43.7298 51.0011 43.8488 51.0011 43.9479C51.0011 44.037 51.0303 44.1085 51.0902 44.163C51.1494 44.2175 51.2538 44.2444 51.4021 44.2444C51.5426 44.2444 51.7009 44.1991 51.8752 44.1069C52.0496 44.0155 52.224 43.898 52.3991 43.7544C52.5735 43.6107 52.7348 43.4571 52.8838 43.2942C52.9061 43.2397 52.9261 43.1844 52.9453 43.1275C52.9637 43.0707 52.9806 43.0123 52.9952 42.9532C53.0175 42.884 53.0712 42.8034 53.1565 42.712C53.2418 42.6206 53.3777 42.5745 53.5628 42.5745C53.5997 42.5745 53.6366 42.576 53.6742 42.5783C53.7111 42.5806 53.7518 42.5868 53.7963 42.5968C53.7963 42.6759 53.761 42.8234 53.6903 43.0384C53.6197 43.2535 53.519 43.5055 53.3892 43.792C53.2594 44.0793 53.105 44.3735 52.9268 44.6753C53.2756 44.5862 53.6174 44.4388 53.9515 44.2337C54.2856 44.0286 54.5568 43.7544 54.7642 43.4133L54.9086 43.4878C54.7972 43.7252 54.6282 43.9318 54.4016 44.1077C54.175 44.2836 53.9208 44.4341 53.6389 44.5609C53.357 44.6869 53.0781 44.7921 52.8031 44.8766C52.6103 45.1931 52.4006 45.4903 52.174 45.7676C51.9474 46.0449 51.7101 46.2692 51.4612 46.4397C51.2139 46.6095 50.9596 46.6948 50.7 46.6948ZM50.6439 46.4566C50.7553 46.4566 50.9427 46.3591 51.2062 46.1632C51.4697 45.9673 51.75 45.6248 52.0473 45.1347C51.7431 45.2438 51.4604 45.3513 51.2008 45.4581C50.9412 45.5641 50.733 45.6793 50.5771 45.8037C50.4212 45.9274 50.3436 46.071 50.3436 46.2347C50.3436 46.2746 50.3659 46.3215 50.4104 46.376C50.455 46.4298 50.5325 46.4566 50.6439 46.4566Z" fill="#F83758"/>
<path d="M54.9985 44.69C54.9017 44.69 54.8188 44.6738 54.7481 44.6416C54.6774 44.6093 54.6421 44.5586 54.6421 44.4895C54.6421 44.4349 54.6751 44.3842 54.7419 44.3374C54.8088 44.2905 54.8925 44.2529 54.9924 44.226C55.0922 44.1991 55.1905 44.1853 55.2873 44.1853C55.3764 44.1853 55.4471 44.1976 55.4986 44.2222C55.55 44.2468 55.5761 44.2944 55.5761 44.3635C55.5761 44.4134 55.5485 44.4626 55.4924 44.5118C55.4363 44.5609 55.3641 44.6032 55.275 44.6377C55.1859 44.6723 55.0953 44.69 54.9985 44.69Z" fill="#F83758"/>
<path d="M12.9709 30.8175C9.22388 30.8175 7.35039 28.91 7.35039 25.0948C7.35039 23.9821 7.61154 22.6309 8.13385 21.0413C8.67887 19.4516 9.47368 17.8052 10.5183 16.1021C11.5629 14.3762 12.7438 12.7752 14.0609 11.2991C15.378 9.82301 16.9223 8.60807 18.6936 7.65429C20.4649 6.70051 22.2475 6.22362 24.0415 6.22362C24.8818 6.22362 25.529 6.32581 25.9832 6.53019C26.4373 6.71186 26.6758 6.8027 26.6985 6.8027C26.7439 6.8027 27.0278 6.68916 27.5501 6.46207C28.0951 6.23497 28.731 6.12143 29.4577 6.12143C30.2071 6.12143 30.5817 6.33717 30.5817 6.76864C30.5817 7.1774 30.1389 8.08576 29.2533 9.49372C28.3903 10.9017 27.3457 12.2529 26.1194 13.5473C24.8931 14.8417 23.9166 15.4889 23.19 15.4889C23.0991 15.5116 22.9856 15.523 22.8493 15.523C22.4178 15.523 22.2021 15.3981 22.2021 15.1483C22.2021 15.1029 22.3611 14.8531 22.679 14.3989C22.9969 13.922 23.3149 13.2975 23.6328 12.5254C23.9507 11.7306 24.1097 11.0947 24.1097 10.6178C24.1097 10.1409 24.087 9.8003 24.0415 9.59591C23.9961 9.39153 23.8372 9.15309 23.5647 8.88058C23.3149 8.60807 22.9629 8.47182 22.5087 8.47182C21.2824 8.47182 19.8177 9.40289 18.1145 11.265C16.434 13.1272 14.9806 15.3186 13.7543 17.8393C12.5508 20.3373 11.949 22.4606 11.949 24.2092C11.949 26.2984 12.9028 27.343 14.8103 27.343C17.0812 27.343 19.284 25.8783 21.4186 22.9488C21.5095 22.7672 21.6003 22.6763 21.6912 22.6763C21.8047 22.6763 21.8842 22.6877 21.9296 22.7104C21.9977 22.7104 22.0772 22.7785 22.168 22.9148C22.2816 23.0283 22.3384 23.2554 22.3384 23.596C22.3384 23.9367 22.0999 24.5044 21.623 25.2992C21.1688 26.094 20.5557 26.9116 19.7836 27.7518C19.0115 28.592 18.0123 29.3187 16.786 29.9319C15.5597 30.5223 14.288 30.8175 12.9709 30.8175ZM21.7524 31.2944C21.7524 30.3861 22.1271 28.9781 22.8765 27.0705C23.6259 25.1403 24.4661 23.2668 25.3972 21.45C26.3282 19.6333 27.5886 17.3965 29.1782 14.7395C31.54 10.8108 33.9698 6.91625 36.4678 3.05571C36.8539 2.44256 37.4557 1.94296 38.2732 1.55691C39.0907 1.17086 39.8288 0.977828 40.4873 0.977828C41.1459 0.977828 41.4865 1.1595 41.5092 1.52285C41.5092 1.63639 41.4411 1.76129 41.3049 1.89755C40.5327 2.60153 39.2383 4.23658 37.4216 6.8027C35.6049 9.34612 33.6746 12.2642 31.6308 15.557C29.6097 18.8499 27.827 22.3243 26.2828 25.9805C24.7613 29.6367 24.0006 32.6229 24.0006 34.9392C24.0006 35.2799 23.8984 35.4502 23.694 35.4502C23.3079 35.4502 22.9787 35.3026 22.7061 35.0073C22.4336 34.7348 22.2406 34.3828 22.1271 33.9514C21.8773 33.0884 21.7524 32.2028 21.7524 31.2944ZM29.6849 30.4428C29.1626 30.193 28.7311 29.7502 28.3905 29.1143C28.0726 28.4785 27.9136 27.695 27.9136 26.764C27.9136 25.3106 28.3791 23.7891 29.3102 22.1994C30.264 20.6098 31.5925 19.2473 33.2957 18.1118C35.0215 16.9764 36.8383 16.4086 38.7458 16.4086C39.6315 16.4086 40.3695 16.6471 40.96 17.124C41.5504 17.6009 41.8456 18.0777 41.8456 18.5546C41.8456 19.0088 41.7775 19.3722 41.6412 19.6447C41.505 19.9172 41.4369 20.0989 41.4369 20.1897C41.4369 20.4622 41.6526 20.5985 42.0841 20.5985C42.5155 20.5985 42.8448 20.5417 43.0719 20.4281C43.299 20.3146 43.4352 20.2578 43.4807 20.2578C43.6623 20.2578 43.7532 20.4963 43.7532 20.9732C43.7532 21.4273 43.5261 21.9723 43.0719 22.6082C42.6177 23.2213 42.0614 23.6755 41.4028 23.9707C41.312 24.1524 41.1871 24.4136 41.0281 24.7542C40.8691 25.0721 40.4944 25.6399 39.904 26.4574C39.3136 27.2522 38.6777 27.9675 37.9964 28.6034C37.3379 29.2165 36.4522 29.7729 35.3395 30.2725C34.2494 30.7948 33.2502 31.056 32.3419 31.056C31.4335 31.056 30.5479 30.8516 29.6849 30.4428ZM37.2811 24.5839C37.2811 24.4022 37.1789 24.3114 36.9745 24.3114C36.6793 24.3114 36.3387 24.3795 35.9526 24.5158C35.5893 24.652 35.3849 24.7201 35.3395 24.7201C35.2032 24.7201 35.1351 24.618 35.1351 24.4136C35.1351 23.5279 35.453 22.7672 36.0889 22.1313C36.3387 21.8588 36.702 21.6317 37.1789 21.45C37.6558 21.2457 38.0191 21.0186 38.2689 20.7688C38.5414 20.4963 38.6777 20.0421 38.6777 19.4062C38.6777 18.6341 38.2689 18.2481 37.4514 18.2481C35.998 18.2481 34.6128 19.2813 33.2957 21.3479C31.9785 23.3917 31.32 25.2197 31.32 26.8321C31.32 27.3771 31.5016 27.8426 31.865 28.2287C32.251 28.6147 32.7052 28.8078 33.2275 28.8078C34.4084 28.8078 35.3735 28.3195 36.1229 27.343C36.895 26.3438 37.2811 25.4241 37.2811 24.5839ZM59.8237 8.23337L61.4929 8.16524C61.7199 8.16524 61.8335 8.21066 61.8335 8.3015C61.8335 8.39234 61.8108 8.50588 61.7654 8.64213C61.7199 8.77839 61.6178 8.94871 61.4588 9.15309C61.3225 9.35747 61.1522 9.53914 60.9478 9.69811C60.4028 10.1296 59.7215 10.3453 58.904 10.3453C58.1092 10.3453 57.5188 10.368 57.1327 10.4134C56.7694 10.4589 56.4514 10.5724 56.1789 10.7541C55.9064 10.9357 55.7248 11.072 55.6339 11.1628C55.5431 11.2537 55.3841 11.4808 55.157 11.8441C54.9299 12.2075 54.771 12.4573 54.6801 12.5935C53.4766 14.274 51.5236 17.4419 48.8212 22.0972C46.1415 26.7526 44.4724 30.352 43.8139 32.8954C43.7457 33.1225 43.53 33.236 43.1666 33.236C42.826 33.236 42.3491 32.9408 41.736 32.3504C41.1228 31.76 40.8163 31.1582 40.8163 30.545C40.8163 29.9319 41.736 28.1038 43.5754 25.0608C45.4375 22.0178 47.2997 19.0315 49.1618 16.1021C51.024 13.1499 51.955 11.5148 51.955 11.1969C51.955 10.8563 51.8188 10.6519 51.5463 10.5838C51.2738 10.4929 50.7969 10.4475 50.1156 10.4475H48.9915C48.6963 10.4475 48.5487 10.3113 48.5487 10.0387C48.5487 9.76623 48.6736 9.48237 48.9234 9.18715C49.1959 8.86923 49.5933 8.59672 50.1156 8.36963C50.6606 8.14253 51.2056 7.91544 51.7507 7.68835C52.3184 7.46126 53.0451 6.95031 53.9307 6.15549C54.8391 5.36068 55.7475 4.33877 56.6558 3.08977C57.2235 2.31766 58.2 1.93161 59.5853 1.93161C60.0622 1.93161 60.3006 2.07922 60.3006 2.37444C60.3006 2.55611 59.7897 3.38499 58.7678 4.86108C57.7459 6.33717 57.2349 7.26824 57.2349 7.65429C57.2349 8.01764 57.5755 8.19931 58.2568 8.19931C58.5293 8.22202 59.0516 8.23337 59.8237 8.23337ZM64.2847 17.3965C65.2612 17.3965 65.7495 17.9642 65.7495 19.0997C65.7495 20.2351 65.3521 21.6658 64.5572 23.3917C63.3991 25.8215 62.082 27.9221 60.6059 29.6934C59.9019 30.5337 59.0162 30.9538 57.9489 30.9538C57.6083 30.9538 57.438 30.8629 57.438 30.6813L57.5742 30.3066C58.6415 28.7396 59.584 27.1273 60.4015 25.4695C61.2417 23.7891 61.6618 22.5741 61.6618 21.8247C61.6618 21.6885 61.6164 21.5749 61.5256 21.4841C61.4575 21.3933 61.3326 21.3365 61.1509 21.3138C60.2198 21.3138 58.9595 22.0745 57.3698 23.596C55.8029 25.1176 54.4404 26.6504 53.2822 28.1946C52.1467 29.7388 51.4087 30.8062 51.0681 31.3966C50.7501 32.0098 50.4209 32.3731 50.0802 32.4866C49.7396 32.6229 49.1832 32.691 48.4111 32.691C47.639 32.691 47.2529 32.5548 47.2529 32.2823C47.2529 32.1914 47.3665 31.9757 47.5936 31.6351C47.798 31.2944 48.6041 29.7616 50.0121 27.0365C51.4428 24.3114 52.9416 21.5409 54.5085 18.725C56.0981 15.8863 57.824 12.9909 59.6861 10.0387C61.571 7.08656 63.4445 4.6794 65.3066 2.81726C67.1915 0.932411 68.8265 -0.010015 70.2118 -0.010015C71.2791 -0.010015 71.8128 0.614484 71.8128 1.86348C71.8128 4.27064 70.7114 6.84812 68.5086 9.59591C66.3285 12.3437 64.3301 14.1377 62.5134 14.978C62.1047 15.1596 61.6732 15.2505 61.219 15.2505C60.7875 15.2505 60.5718 15.1483 60.5718 14.9439L60.7762 14.6033C63.0017 13.059 64.7616 11.2764 66.056 9.25528C67.3732 7.23417 68.0317 5.81486 68.0317 4.99733C68.0317 4.72482 67.9977 4.54315 67.9295 4.45231C67.8614 4.33877 67.7024 4.282 67.4526 4.282C66.6351 4.282 65.2953 5.61048 63.4331 8.26744C61.5937 10.9244 59.9359 13.6608 58.4599 16.4768C56.9838 19.2927 56.2457 21.0072 56.2457 21.6204C56.2457 21.8702 56.3252 21.9951 56.4842 21.9951C56.6658 21.9951 56.9043 21.8815 57.1995 21.6544C57.5401 21.3365 57.9716 20.9391 58.4939 20.4622C59.0389 19.9853 59.9359 19.3608 61.1849 18.5887C62.4567 17.7939 63.4899 17.3965 64.2847 17.3965ZM57.294 51.3579C56.3402 51.3579 55.8633 50.563 55.8633 48.9734C55.8633 47.3838 56.3288 45.6125 57.2599 43.6595C58.191 41.7292 59.3151 39.9466 60.6322 38.3115C61.9266 36.6992 63.3119 35.3253 64.788 34.1898C66.2641 33.0544 67.5017 32.4866 68.5009 32.4866C68.8415 32.4866 69.0119 32.5661 69.0119 32.7251C69.0119 32.884 68.8756 33.0317 68.6031 33.1679C67.7401 33.6221 66.6388 34.5872 65.2989 36.0633C63.9818 37.5621 62.7896 39.2653 61.7222 41.1729C60.6322 43.1031 60.0872 44.7268 60.0872 46.0439C60.0872 46.6117 60.2916 46.8955 60.7003 46.8955C61.4952 46.8955 62.6987 45.7828 64.3111 43.5573C66.9226 39.992 69.5909 35.4502 72.316 29.9319C73.1335 28.2968 73.5423 27.3203 73.5423 27.0024C73.5423 26.6845 73.4515 26.5255 73.2698 26.5255C73.0427 26.5255 72.8156 26.6391 72.5885 26.8662C70.0451 29.0462 68.0694 30.1363 66.6615 30.1363C65.6396 30.1363 65.1286 29.5912 65.1286 28.5012C65.1286 27.3885 65.7304 25.6853 66.934 23.3917C68.1603 21.0753 69.3979 19.2927 70.6469 18.0437C70.9194 17.7712 71.2941 17.5554 71.771 17.3965C72.2479 17.2148 72.7361 17.124 73.2357 17.124C73.758 17.124 74.0192 17.2375 74.0192 17.4646C74.0192 17.5554 73.6559 18.0777 72.9292 19.0315C70.7264 21.961 69.625 24.0502 69.625 25.2992C69.625 25.8442 69.8634 26.1168 70.3403 26.1168C71.1806 26.1168 72.475 25.2992 74.2236 23.6642C75.9949 22.0291 77.5391 20.1102 78.8562 17.9074C79.265 17.0899 80.1734 16.6811 81.5813 16.6811C82.2626 16.6811 82.6032 16.8174 82.6032 17.0899C82.6032 17.158 82.5692 17.2489 82.501 17.3624C80.2983 20.9959 78.2885 24.5044 76.4718 27.8881C74.6551 31.249 73.1903 33.8378 72.0776 35.6546C70.9875 37.494 69.7613 39.4015 68.3987 41.3772C67.0589 43.3529 65.7645 45.0447 64.5155 46.4527C63.2892 47.8834 62.0402 49.0529 60.7685 49.9613C59.4741 50.8923 58.3159 51.3579 57.294 51.3579Z" fill="#F83758"/>
</svg>
