<svg width="96" height="52" viewBox="0 0 96 52" fill="none" xmlns="http://www.w3.org/2000/svg">
<path d="M1 38L60.4033 37.626" stroke="#807D7E" stroke-width="0.420324" stroke-miterlimit="10" stroke-linecap="round" stroke-linejoin="round"/>
<path d="M71.9785 37.813H77.0067" stroke="#807D7E" stroke-width="0.420324" stroke-miterlimit="10" stroke-linecap="round" stroke-linejoin="round"/>
<path d="M6.95025 45.2618C6.78663 45.2618 6.59767 45.1972 6.38183 45.0689C6.16675 44.9399 5.93785 44.7694 5.69665 44.5566C5.45546 44.3438 5.21811 44.1126 4.98382 43.8622C4.75031 43.6126 4.53447 43.3637 4.33782 43.1156C4.14118 42.8682 3.97603 42.6478 3.84237 42.455L2.76238 44.7863C2.71014 44.9 2.62872 44.9806 2.51734 45.0275C2.40596 45.0743 2.28537 45.1027 2.15555 45.1127C2.02574 45.1227 1.89746 45.1273 1.77148 45.1273C1.8675 44.9891 1.96659 44.8301 2.06645 44.6519C2.16707 44.4736 2.28536 44.2586 2.42286 44.0058C2.56036 43.7531 2.72167 43.4466 2.90756 43.0849C3.09344 42.7238 3.3139 42.2914 3.57045 41.789C3.82624 41.2867 4.12889 40.6967 4.47839 40.0185C4.50067 39.9785 4.53062 39.9232 4.56749 39.8518C4.60436 39.7803 4.62357 39.7143 4.62357 39.6551C4.62357 39.6006 4.60513 39.5576 4.56749 39.5253C4.53062 39.4931 4.45996 39.4769 4.35626 39.4769C4.17805 39.4769 4.00522 39.5253 3.83854 39.6213C3.67185 39.7174 3.52283 39.8403 3.39302 39.9893C3.2632 40.1375 3.16104 40.2911 3.08653 40.4494C3.01202 40.6076 2.97515 40.749 2.97515 40.8726C2.97515 40.9671 2.99359 41.0508 3.03046 41.1253C2.78542 41.1253 2.61259 41.0846 2.51273 41.0032C2.41211 40.9218 2.36218 40.8212 2.36218 40.7021C2.36218 40.5339 2.43592 40.3657 2.58494 40.1974C2.73319 40.0292 2.92445 39.8741 3.15874 39.7335C3.39302 39.5921 3.63805 39.48 3.89384 39.3955C4.14963 39.3118 4.38161 39.2695 4.58977 39.2695C4.79025 39.2695 4.92544 39.3064 4.99611 39.3809C5.06678 39.4554 5.10212 39.5368 5.10212 39.6259C5.10212 39.6805 5.0929 39.735 5.07446 39.7896C5.05603 39.8441 5.03529 39.8963 5.01301 39.9455L4.07742 41.9649C4.18112 41.8658 4.31708 41.7744 4.48377 41.6899C4.65045 41.6062 4.8348 41.5094 5.03529 41.4003C5.36943 41.2221 5.72738 41.014 6.10991 40.7766C6.49244 40.5393 6.85807 40.2888 7.2068 40.0269C7.55554 39.7642 7.84513 39.5123 8.07557 39.2695C8.11244 39.2995 8.13855 39.351 8.15391 39.4255C8.16851 39.5 8.17619 39.5568 8.17619 39.596C8.17619 39.7496 8.08171 39.9178 7.89198 40.1007C7.70225 40.2835 7.45568 40.4732 7.1515 40.6683C6.84732 40.8642 6.51318 41.057 6.14908 41.2475C5.78499 41.438 5.42704 41.6177 5.07446 41.7859C4.72189 41.9542 4.40388 42.1001 4.12198 42.2238C4.34474 42.4765 4.56212 42.7161 4.77335 42.9443C4.98459 43.1717 5.21503 43.3944 5.46391 43.6126C5.71278 43.8307 6.0039 44.0535 6.33804 44.2808C6.67218 44.5082 7.07699 44.7532 7.5517 45.0159C7.49946 45.0805 7.41804 45.1373 7.30666 45.1865C7.19528 45.2372 7.07622 45.2618 6.95025 45.2618Z" fill="#0D0C22"/>
<path d="M12.9089 44.9796C12.4557 44.9796 12.12 44.8882 11.9011 44.7046C11.6822 44.5218 11.5723 44.3013 11.5723 44.044C11.2528 44.3259 10.8856 44.5464 10.4701 44.7046C10.0545 44.8628 9.63433 44.9419 9.21186 44.9419C8.75866 44.9419 8.41914 44.859 8.19254 44.6931C7.96594 44.5272 7.85303 44.3228 7.85303 44.0809C7.85303 43.8581 7.93675 43.6231 8.10344 43.3757C8.27089 43.1284 8.49365 42.8956 8.77172 42.6775C9.04978 42.4601 9.35627 42.2827 9.69041 42.1467C10.0245 42.0107 10.3548 41.9424 10.6821 41.9424C10.8526 41.9424 11.0108 41.9723 11.1552 42.0315C11.3004 42.0906 11.3726 42.212 11.3726 42.3956C11.3726 42.5838 11.2889 42.7604 11.1222 42.9264C10.9555 43.0923 10.7358 43.2398 10.4655 43.368C10.1943 43.4971 9.89703 43.6016 9.57442 43.6837C9.2518 43.7659 8.92995 43.8159 8.61118 43.8358C8.59658 43.8858 8.58506 43.9326 8.57738 43.9772C8.5697 44.0217 8.56586 44.064 8.56586 44.1031C8.56586 44.2022 8.59197 44.2998 8.64421 44.3966C8.69567 44.4934 8.78477 44.5725 8.91152 44.6339C9.03749 44.6961 9.2157 44.7269 9.44614 44.7269C9.83943 44.7269 10.2296 44.6339 10.616 44.4488C11.0016 44.2629 11.3396 44.034 11.6292 43.7621C11.696 43.5593 11.8151 43.3565 11.9856 43.153C12.1561 42.9502 12.3627 42.7658 12.6039 42.5999C12.8451 42.434 13.1071 42.3003 13.389 42.1989C13.6709 42.0975 13.9574 42.0468 14.247 42.0468C14.4175 42.0468 14.5757 42.0768 14.7202 42.136C14.8646 42.1951 14.9375 42.3165 14.9375 42.5C14.9375 42.7528 14.8093 42.974 14.5535 43.1645C14.2977 43.355 13.9689 43.5071 13.5679 43.6215C13.167 43.7352 12.7553 43.8074 12.332 43.8366C12.3174 43.8865 12.3059 43.9334 12.2982 43.9779C12.2905 44.0225 12.2867 44.0647 12.2867 44.1039C12.2867 44.203 12.3105 44.3044 12.3589 44.4081C12.4073 44.5118 12.4926 44.5971 12.6147 44.6639C12.7376 44.7307 12.9135 44.7637 13.1439 44.7637C13.4635 44.7637 13.7823 44.7008 14.1018 44.5748C14.4213 44.4488 14.7178 44.2829 14.9928 44.077C15.2678 43.8719 15.4975 43.6499 15.6834 43.4126L15.817 43.4794C15.6166 43.7767 15.3585 44.0379 15.0428 44.2629C14.7271 44.488 14.386 44.6639 14.0181 44.7899C13.6494 44.9166 13.2799 44.9796 12.9089 44.9796ZM8.66571 43.6945C8.8662 43.6499 9.0928 43.5847 9.34475 43.4979C9.59746 43.4111 9.84019 43.3089 10.0745 43.1898C10.3088 43.0708 10.5016 42.9402 10.6536 42.7965C10.8057 42.6529 10.8818 42.5024 10.8818 42.3434C10.8818 42.2888 10.8672 42.2466 10.8372 42.2174C10.8073 42.1874 10.7443 42.1728 10.6483 42.1728C10.4701 42.1728 10.2803 42.2189 10.0799 42.3103C9.87937 42.4017 9.68656 42.5216 9.50067 42.6706C9.31479 42.8188 9.1481 42.9824 8.99909 43.1606C8.85084 43.3381 8.73945 43.5163 8.66571 43.6945ZM12.3858 43.6945C12.5863 43.6499 12.8052 43.5908 13.0433 43.5163C13.2807 43.4418 13.5073 43.3542 13.7231 43.2528C13.9382 43.1514 14.1164 43.0354 14.2577 42.9041C14.3983 42.7727 14.469 42.6283 14.469 42.4701C14.469 42.4156 14.4505 42.3695 14.4129 42.3326C14.376 42.2957 14.3092 42.2773 14.2124 42.2773C13.9751 42.2773 13.7354 42.3464 13.4942 42.4855C13.253 42.6237 13.0341 42.8012 12.8367 43.0162C12.64 43.2305 12.4895 43.4571 12.3858 43.6945Z" fill="#0D0C22"/>
<path d="M14.7475 46.6949C14.6884 46.6949 14.6308 46.6742 14.5747 46.632C14.5186 46.5897 14.4764 46.5452 14.4464 46.4983C14.4164 46.4514 14.4019 46.423 14.4019 46.413C14.5056 46.1703 14.6077 45.9537 14.7083 45.7632C14.809 45.5727 14.9088 45.3768 15.0094 45.1763C15.1093 44.9759 15.2084 44.7408 15.3044 44.4712C15.4012 44.2016 15.5011 43.8659 15.6055 43.4649C15.7092 43.064 15.8137 42.5662 15.9174 41.9724C15.9251 41.9279 15.9397 41.8956 15.9619 41.8757C15.9842 41.8557 16.0395 41.8457 16.1286 41.8457C16.3214 41.8457 16.4589 41.8818 16.5411 41.9532C16.6225 42.0247 16.6632 42.103 16.6632 42.1868C16.6632 42.2559 16.641 42.3796 16.5964 42.5578C16.5519 42.736 16.4889 42.9464 16.4075 43.1892C16.5334 43.0256 16.6917 42.8596 16.8806 42.6914C17.0696 42.5232 17.287 42.3819 17.532 42.2682C17.777 42.1545 18.0444 42.0977 18.3339 42.0977C18.6604 42.0977 18.93 42.176 19.1412 42.3312C19.3525 42.4871 19.4585 42.6914 19.4585 42.9441C19.4585 43.1369 19.3932 43.3413 19.2634 43.5563C19.1336 43.7714 18.9515 43.975 18.718 44.1655C18.4845 44.356 18.2072 44.5111 17.8884 44.6294C17.5689 44.7485 17.2163 44.8076 16.8307 44.8076C16.6371 44.8076 16.482 44.793 16.3629 44.7631C16.2438 44.7331 16.1847 44.7039 16.1847 44.674C16.1847 44.654 16.2123 44.6433 16.2684 44.6402C16.3245 44.6379 16.389 44.6363 16.4635 44.6363C16.7608 44.6363 17.0442 44.5879 17.3154 44.4912C17.5865 44.3944 17.8293 44.2669 18.0451 44.1086C18.2602 43.9504 18.4292 43.7745 18.5521 43.5817C18.6742 43.3889 18.7357 43.1984 18.7357 43.0102C18.7357 42.852 18.6857 42.7168 18.5851 42.6054C18.4853 42.494 18.3232 42.4387 18.1004 42.4387C17.9076 42.4387 17.7164 42.4794 17.5266 42.5608C17.3369 42.6423 17.1587 42.7467 16.992 42.8727C16.8245 42.9987 16.6763 43.13 16.5465 43.266C16.4167 43.4019 16.3183 43.5248 16.2515 43.6332C16.1179 44.0042 15.9842 44.3621 15.8506 44.7062C15.7169 45.0504 15.5886 45.3622 15.4665 45.6418C15.3436 45.9214 15.233 46.1503 15.1324 46.3285C15.0325 46.5067 14.9488 46.6158 14.8819 46.655C14.8435 46.6826 14.799 46.6949 14.7475 46.6949Z" fill="#0D0C22"/>
<path d="M23.5018 44.8083C23.2122 44.8083 22.9963 44.7476 22.8558 44.6263C22.7144 44.5049 22.6445 44.3574 22.6445 44.1846C22.6445 44.0709 22.676 43.9273 22.739 43.7537C22.802 43.5808 22.8857 43.3988 22.9894 43.2083C23.0931 43.0178 23.2137 42.838 23.3512 42.6698C23.4887 42.5016 23.6354 42.3641 23.7914 42.2573C23.9473 42.1513 24.0994 42.0976 24.2484 42.0976C24.3152 42.0976 24.3728 42.1114 24.4212 42.1383C24.4696 42.1652 24.4934 42.2066 24.4934 42.2604C24.4934 42.3196 24.4358 42.4163 24.3206 42.55C24.2054 42.6836 24.0702 42.8373 23.9143 43.0101C23.7583 43.1837 23.6231 43.365 23.5079 43.5555C23.3927 43.746 23.3351 43.928 23.3351 44.1016C23.3351 44.2798 23.3796 44.3989 23.4687 44.458C23.5578 44.5172 23.6953 44.5471 23.8812 44.5471C24.1339 44.5471 24.4028 44.4634 24.6885 44.2944C24.9743 44.1262 25.2769 43.832 25.5965 43.4111L25.6963 43.4856C25.4813 43.9111 25.1709 44.2383 24.7661 44.4657C24.3605 44.6946 23.9396 44.8083 23.5018 44.8083ZM24.8376 41.4078C24.7185 41.4078 24.6133 41.3878 24.5203 41.3486C24.4274 41.3087 24.3813 41.2472 24.3813 41.1627C24.3813 41.059 24.4719 40.9684 24.654 40.8916C24.836 40.8148 25.0158 40.7764 25.194 40.7764C25.3053 40.7764 25.3945 40.794 25.4613 40.8286C25.5281 40.8632 25.5611 40.9231 25.5611 41.0068C25.5611 41.1005 25.4851 41.1912 25.333 41.278C25.1817 41.3648 25.0165 41.4078 24.8376 41.4078Z" fill="#0D0C22"/>
<path d="M26.3298 44.9573C26.0102 44.9573 25.7652 44.8951 25.5947 44.7715C25.4241 44.6478 25.3389 44.465 25.3389 44.2222C25.3389 44.0049 25.4003 43.736 25.5225 43.4165C25.6446 43.0969 25.799 42.7697 25.9849 42.4325C25.9104 42.4225 25.8405 42.414 25.7736 42.4064C25.7068 42.3987 25.6438 42.3879 25.5847 42.3733V42.2397C25.6438 42.2443 25.7145 42.2497 25.7959 42.2543C25.8773 42.2589 25.9703 42.2643 26.074 42.2689C26.2299 42.0016 26.3974 41.7427 26.5748 41.4931C26.753 41.2434 26.9297 41.0207 27.104 40.8248C27.2784 40.6297 27.4459 40.473 27.6056 40.357C27.7654 40.241 27.9006 40.1826 28.012 40.1826C28.0711 40.1826 28.1249 40.1964 28.1733 40.2233C28.2217 40.2502 28.2455 40.2917 28.2455 40.3455C28.2455 40.43 28.1679 40.5667 28.012 40.7579C27.856 40.9484 27.6632 41.175 27.4328 41.437C27.2024 41.6997 26.9796 41.9839 26.7645 42.2911C26.8314 42.2911 26.8997 42.2911 26.9704 42.2911C27.0411 42.2911 27.1094 42.2911 27.1762 42.2911C27.4213 42.2911 27.6794 42.2888 27.9505 42.2835C28.2217 42.2789 28.4944 42.2658 28.7694 42.2466V42.3802C28.3607 42.4102 27.9951 42.4325 27.6725 42.4471C27.3498 42.4617 27.0618 42.4694 26.8091 42.4694C26.7791 42.4694 26.7515 42.4694 26.7254 42.4694C26.6992 42.4694 26.6716 42.4694 26.6416 42.4694C26.4711 42.7321 26.3259 43.0017 26.2076 43.279C26.0886 43.5563 26.0294 43.8259 26.0294 44.0886C26.0294 44.3014 26.0778 44.4534 26.1738 44.5449C26.2699 44.6363 26.4296 44.6823 26.6531 44.6823C27.0395 44.6823 27.4182 44.5687 27.7892 44.3405C28.1602 44.1132 28.4867 43.8036 28.7694 43.4126L28.9138 43.4871C28.7356 43.7644 28.5105 44.0141 28.2401 44.2368C27.969 44.4596 27.6702 44.6355 27.3437 44.7638C27.0165 44.8928 26.6793 44.9573 26.3298 44.9573Z" fill="#0D0C22"/>
<path d="M32.6454 45.031C32.289 45.031 31.9917 44.9519 31.7544 44.7937C31.517 44.6354 31.3979 44.3981 31.3979 44.0808C31.3979 43.8335 31.4702 43.5923 31.6153 43.3565C31.7597 43.1214 31.951 42.9102 32.1891 42.722C32.4265 42.5338 32.69 42.384 32.9795 42.2726C33.2691 42.1613 33.5549 42.106 33.8375 42.106C34.1417 42.106 34.3499 42.1651 34.4613 42.2842C34.5727 42.4032 34.628 42.5269 34.628 42.6552C34.628 42.7988 34.578 42.9248 34.4774 43.0339C34.3775 43.1429 34.2416 43.1975 34.0711 43.1975C33.9451 43.1975 33.8375 43.1606 33.7477 43.0861C33.8591 43.0469 33.9558 42.9663 34.0373 42.8449C34.1187 42.7235 34.1602 42.6083 34.1602 42.4992C34.1602 42.4401 34.1433 42.394 34.1102 42.3617C34.0764 42.3295 34.0119 42.3134 33.9151 42.3134C33.7146 42.3134 33.5088 42.3725 33.2968 42.4916C33.0855 42.6106 32.8881 42.7635 32.7069 42.9517C32.5248 43.1399 32.3766 43.338 32.2613 43.5454C32.1461 43.7536 32.0885 43.9487 32.0885 44.1323C32.0885 44.2859 32.1446 44.4265 32.256 44.5555C32.3673 44.6838 32.5824 44.7483 32.902 44.7483C33.1992 44.7483 33.498 44.6938 33.7984 44.5847C34.0987 44.4757 34.3791 44.3197 34.6395 44.1169C34.8991 43.9141 35.1073 43.676 35.2632 43.4041L35.4076 43.4786C35.2371 43.7759 35.0028 44.0417 34.7063 44.2767C34.409 44.5118 34.0826 44.6961 33.7262 44.8298C33.369 44.9642 33.0087 45.031 32.6454 45.031Z" fill="#0D0C22"/>
<path d="M35.9755 44.8383C35.656 44.8383 35.4278 44.7653 35.2903 44.6194C35.1528 44.4734 35.0845 44.2914 35.0845 44.074C35.0845 43.8367 35.1513 43.554 35.285 43.2275C35.4186 42.9011 35.5953 42.5569 35.8142 42.1951C36.0331 41.8341 36.2728 41.4816 36.5324 41.1367C36.792 40.7925 37.0517 40.4799 37.3121 40.1972C37.5717 39.9153 37.8113 39.6895 38.0303 39.5213C38.2492 39.353 38.422 39.2686 38.548 39.2686C38.6294 39.2686 38.6962 39.2993 38.7485 39.3615C38.8007 39.4237 38.8414 39.4975 38.8714 39.5843C38.9006 39.6711 38.9159 39.7486 38.9159 39.8178C38.9159 39.9514 38.866 40.1258 38.7654 40.3416C38.6655 40.5567 38.5242 40.7971 38.3421 41.0621C38.1601 41.3272 37.945 41.5945 37.6961 41.8641C37.4473 42.1337 37.1761 42.3926 36.8834 42.6399C36.59 42.8872 36.2805 43.1 35.9532 43.2782C35.9087 43.4119 35.8733 43.5417 35.8472 43.6684C35.8211 43.7944 35.8081 43.915 35.8081 44.0287C35.8081 44.2215 35.8488 44.3651 35.9302 44.4596C36.0116 44.5533 36.1345 44.6009 36.2981 44.6009C36.4986 44.6009 36.6976 44.5418 36.8942 44.4227C37.0908 44.3037 37.2767 44.1539 37.4511 43.9734C37.6255 43.7929 37.776 43.6062 37.902 43.4126L38.0687 43.4718C37.7714 43.8927 37.4488 44.2253 37.0993 44.4704C36.7513 44.7162 36.3765 44.8383 35.9755 44.8383ZM36.0539 43.0263C36.3135 42.8527 36.5662 42.6537 36.8112 42.4287C37.0563 42.2036 37.2844 41.9693 37.4964 41.7274C37.7084 41.4846 37.8958 41.2496 38.0587 41.0222C38.2215 40.7948 38.3483 40.5905 38.4374 40.41C38.5265 40.2295 38.571 40.0897 38.571 39.9906C38.571 39.9414 38.5618 39.9092 38.5434 39.8938C38.5249 39.8792 38.508 39.8715 38.4935 39.8715C38.4343 39.8715 38.3321 39.9345 38.187 40.0605C38.0426 40.1865 37.8736 40.3562 37.68 40.569C37.4872 40.7818 37.2906 41.0245 37.0901 41.2964C36.8896 41.5684 36.6983 41.8533 36.5163 42.1506C36.3335 42.4471 36.1798 42.7398 36.0539 43.0263Z" fill="#0D0C22"/>
<path d="M38.2143 44.9642C37.9839 44.9642 37.7888 44.9135 37.6298 44.8121C37.47 44.7107 37.3901 44.5563 37.3901 44.3481C37.3901 44.1699 37.4493 43.9779 37.5683 43.7728C37.6866 43.5677 37.8503 43.3642 38.0584 43.1637C38.2666 42.9632 38.5024 42.7804 38.7659 42.6145C39.0293 42.4485 39.3074 42.3164 39.6016 42.2173C39.895 42.1183 40.1861 42.0691 40.4757 42.0691C40.7653 42.0691 41.0065 42.1198 41.1993 42.2212C41.3921 42.3226 41.4889 42.4578 41.4889 42.626C41.4889 42.7497 41.439 42.8342 41.3384 42.8787C41.2377 42.9233 41.1064 42.9455 40.9428 42.9455C40.9574 42.9056 40.9704 42.8626 40.9819 42.8157C40.9935 42.7689 40.9988 42.7258 40.9988 42.6859C40.9988 42.5722 40.9581 42.4747 40.8767 42.3925C40.7945 42.3111 40.6539 42.2703 40.4535 42.2703C40.2453 42.2703 40.0341 42.3187 39.8182 42.4148C39.6031 42.5115 39.395 42.6398 39.1945 42.8011C38.994 42.9624 38.8158 43.1368 38.6599 43.325C38.5039 43.5132 38.3818 43.6991 38.2919 43.8819C38.2028 44.0647 38.1583 44.2283 38.1583 44.372C38.1583 44.5648 38.2581 44.6615 38.4594 44.6615C38.6299 44.6615 38.8158 44.6085 39.0163 44.5018C39.2168 44.3958 39.4226 44.259 39.6346 44.0931C39.8459 43.9272 40.0487 43.7551 40.2415 43.5769C40.4343 43.3987 40.6056 43.2351 40.7538 43.0869C40.783 43.0569 40.8022 43.0423 40.8091 43.0423C40.8537 43.0469 40.9113 43.0569 40.9819 43.0723C41.0526 43.0869 41.1141 43.1068 41.1655 43.1314C41.2178 43.156 41.2439 43.1883 41.2439 43.2282C41.2439 43.2728 41.2101 43.3334 41.1432 43.4103C41.0764 43.4871 41.0019 43.5746 40.9205 43.6737C40.8383 43.7728 40.7646 43.8734 40.6977 43.9748C40.6309 44.0762 40.5979 44.1715 40.5979 44.2606C40.5979 44.3351 40.6271 44.4081 40.687 44.4795C40.7461 44.5517 40.8429 44.587 40.9766 44.587C41.177 44.587 41.4405 44.4895 41.767 44.2936C42.0934 44.0985 42.4245 43.8051 42.7586 43.4133L42.87 43.4878C42.7141 43.7551 42.5136 43.9902 42.2686 44.193C42.0235 44.3958 41.7616 44.5548 41.4835 44.6685C41.2055 44.7821 40.932 44.839 40.6647 44.839C40.3897 44.839 40.1877 44.7844 40.0579 44.6754C39.9281 44.5663 39.8628 44.448 39.8628 44.319C39.8628 44.289 39.8666 44.256 39.8743 44.2191C39.8812 44.1822 39.8889 44.1438 39.8966 44.1039C39.577 44.3912 39.2859 44.6062 39.0224 44.7499C38.7582 44.8928 38.4886 44.9642 38.2143 44.9642Z" fill="#0D0C22"/>
<path d="M43.7051 44.9943C43.3564 44.9943 43.0799 44.9436 42.8755 44.8422C42.6712 44.7408 42.5268 44.6156 42.4408 44.4674C42.3555 44.3191 42.3125 44.1701 42.3125 44.0219C42.3125 43.8736 42.3425 43.7592 42.4016 43.68C42.4615 43.6009 42.5337 43.5418 42.619 43.5018C42.7042 43.4619 42.7857 43.4327 42.864 43.4127C42.9424 43.3928 42.9954 43.3728 43.0253 43.3536C43.2481 43.19 43.4524 43.0195 43.6383 42.8412C43.8242 42.663 43.987 42.4748 44.1284 42.2767V42.1876C44.1284 42.0047 44.1745 41.8742 44.2674 41.7973C44.3603 41.7205 44.4587 41.6821 44.5624 41.6821C44.6215 41.6821 44.6661 41.6921 44.696 41.7121C44.726 41.7321 44.7406 41.7543 44.7406 41.7789C44.7406 41.8035 44.7298 41.8434 44.7075 41.898C44.6853 41.9525 44.6737 42.0216 44.6737 42.1061C44.6737 42.2698 44.7221 42.4464 44.8182 42.6369C44.9149 42.8274 45.011 43.0279 45.1077 43.2384C45.2038 43.4488 45.2522 43.6678 45.2522 43.8951C45.2522 43.9596 45.2468 44.0226 45.2353 44.0841C45.2245 44.1463 45.2076 44.2039 45.1853 44.2585C45.445 44.2285 45.69 44.1509 45.9204 44.0249C46.1509 43.899 46.3736 43.6969 46.5887 43.4196L46.6886 43.4942C46.5472 43.7661 46.336 43.9727 46.0541 44.114C45.7722 44.2554 45.4634 44.3429 45.1292 44.3775C45.0102 44.5903 44.8228 44.7462 44.567 44.8453C44.312 44.9452 44.0239 44.9943 43.7051 44.9943ZM43.7274 44.7347C43.8165 44.7347 43.9356 44.7147 44.0838 44.6756C44.2321 44.6356 44.3473 44.5342 44.4295 44.3714C44.1176 44.3322 43.8411 44.25 43.5999 44.1263C43.3587 44.0027 43.1782 43.879 43.0599 43.7553C42.8963 43.7607 42.8149 43.8467 42.8149 44.015C42.8149 44.1932 42.8947 44.3575 43.0545 44.5089C43.2128 44.6586 43.4378 44.7347 43.7274 44.7347ZM44.4848 44.2515C44.4994 44.2024 44.5109 44.1501 44.5178 44.0956C44.5255 44.0411 44.5293 43.9765 44.5293 43.9028C44.5293 43.6701 44.4863 43.4389 44.4011 43.2084C44.3158 42.978 44.2436 42.7614 44.1837 42.5586C44.0131 42.7468 43.8326 42.9265 43.6437 43.097C43.4547 43.2676 43.2742 43.4104 43.1037 43.5241C43.2151 43.6824 43.3879 43.8314 43.6214 43.9696C43.8557 44.1087 44.143 44.2024 44.4848 44.2515Z" fill="#0D0C22"/>
<path d="M47.5469 44.9943C47.1982 44.9943 46.9217 44.9436 46.7173 44.8422C46.513 44.7408 46.3686 44.6156 46.2826 44.4674C46.1973 44.3191 46.1543 44.1701 46.1543 44.0219C46.1543 43.8736 46.1843 43.7592 46.2434 43.68C46.3033 43.6009 46.3755 43.5418 46.4608 43.5018C46.546 43.4619 46.6275 43.4327 46.7058 43.4127C46.7842 43.3928 46.8372 43.3728 46.8671 43.3536C47.0899 43.19 47.2942 43.0195 47.4801 42.8412C47.666 42.663 47.8288 42.4748 47.9702 42.2767V42.1876C47.9702 42.0047 48.0163 41.8742 48.1092 41.7973C48.2021 41.7205 48.3005 41.6821 48.4042 41.6821C48.4633 41.6821 48.5079 41.6921 48.5378 41.7121C48.5678 41.7321 48.5824 41.7543 48.5824 41.7789C48.5824 41.8035 48.5716 41.8434 48.5493 41.898C48.5271 41.9525 48.5155 42.0216 48.5155 42.1061C48.5155 42.2698 48.5639 42.4464 48.66 42.6369C48.7567 42.8274 48.8528 43.0279 48.9495 43.2384C49.0456 43.4488 49.0939 43.6678 49.0939 43.8951C49.0939 43.9596 49.0886 44.0226 49.077 44.0841C49.0663 44.1463 49.0494 44.2039 49.0271 44.2585C49.2868 44.2285 49.5318 44.1509 49.7622 44.0249C49.9927 43.899 50.2154 43.6969 50.4305 43.4196L50.5304 43.4942C50.389 43.7661 50.1778 43.9727 49.8959 44.114C49.614 44.2554 49.3052 44.3429 48.971 44.3775C48.852 44.5903 48.6646 44.7462 48.4088 44.8453C48.1545 44.9452 47.8665 44.9943 47.5469 44.9943ZM47.5692 44.7347C47.6583 44.7347 47.7774 44.7147 47.9256 44.6756C48.0739 44.6356 48.1891 44.5342 48.2713 44.3714C47.9594 44.3322 47.6829 44.25 47.4417 44.1263C47.2005 44.0027 47.02 43.879 46.9017 43.7553C46.7381 43.7607 46.6567 43.8467 46.6567 44.015C46.6567 44.1932 46.7365 44.3575 46.8963 44.5089C47.0553 44.6586 47.2796 44.7347 47.5692 44.7347ZM48.3266 44.2515C48.3412 44.2024 48.3527 44.1501 48.3596 44.0956C48.3673 44.0411 48.3711 43.9765 48.3711 43.9028C48.3711 43.6701 48.3281 43.4389 48.2429 43.2084C48.1576 42.978 48.0854 42.7614 48.0255 42.5586C47.8549 42.7468 47.6744 42.9265 47.4855 43.097C47.2965 43.2676 47.116 43.4104 46.9455 43.5241C47.0569 43.6824 47.2297 43.8314 47.4632 43.9696C47.6975 44.1087 47.9855 44.2024 48.3266 44.2515Z" fill="#0D0C22"/>
<path d="M50.6996 46.6948C50.5137 46.6948 50.3509 46.6617 50.2096 46.5949C50.0682 46.5281 49.9976 46.4305 49.9976 46.3015C49.9976 46.1432 50.0575 46.0019 50.1758 45.8782C50.2941 45.7546 50.4538 45.6409 50.6551 45.5364C50.8556 45.4327 51.0852 45.3336 51.3456 45.2392C51.6053 45.1454 51.8764 45.051 52.1583 44.9572C52.262 44.7744 52.368 44.5701 52.4756 44.345C52.5831 44.12 52.6853 43.8711 52.782 43.5992C52.5447 43.8565 52.2904 44.0777 52.0193 44.2636C51.7481 44.4495 51.4601 44.5417 51.1559 44.5417C51.0146 44.5417 50.8755 44.5209 50.738 44.4787C50.6005 44.4365 50.4876 44.3712 50.3985 44.2821C50.3094 44.193 50.2649 44.0793 50.2649 43.9402C50.2649 43.802 50.3002 43.6407 50.3709 43.4578C50.4415 43.275 50.5283 43.0968 50.6328 42.9232C50.7365 42.7504 50.844 42.6068 50.9562 42.4923C51.0683 42.3778 51.1644 42.3218 51.2458 42.3218C51.2757 42.3218 51.3295 42.3295 51.4071 42.3441C51.4854 42.3586 51.5592 42.3802 51.6298 42.407C51.7005 42.4347 51.7358 42.4631 51.7358 42.4923C51.669 42.5568 51.5945 42.6482 51.5131 42.7673C51.4309 42.8864 51.3518 43.0185 51.2734 43.1644C51.1958 43.3104 51.1306 43.4525 51.0783 43.5915C51.0261 43.7298 51.0007 43.8488 51.0007 43.9479C51.0007 44.037 51.0299 44.1085 51.0898 44.163C51.149 44.2175 51.2535 44.2444 51.4017 44.2444C51.5423 44.2444 51.7005 44.1991 51.8749 44.1069C52.0492 44.0155 52.2236 43.898 52.3987 43.7544C52.5731 43.6107 52.7344 43.4571 52.8834 43.2942C52.9057 43.2397 52.9257 43.1844 52.9449 43.1275C52.9633 43.0707 52.9802 43.0123 52.9948 42.9532C53.0171 42.884 53.0709 42.8034 53.1561 42.712C53.2414 42.6206 53.3773 42.5745 53.5625 42.5745C53.5993 42.5745 53.6362 42.576 53.6738 42.5783C53.7107 42.5806 53.7514 42.5868 53.796 42.5968C53.796 42.6759 53.7606 42.8234 53.69 43.0384C53.6193 43.2535 53.5187 43.5055 53.3889 43.792C53.2591 44.0793 53.1047 44.3735 52.9265 44.6753C53.2752 44.5862 53.617 44.4388 53.9511 44.2337C54.2853 44.0286 54.5564 43.7544 54.7638 43.4133L54.9082 43.4878C54.7969 43.7252 54.6279 43.9318 54.4013 44.1077C54.1747 44.2836 53.9204 44.4341 53.6385 44.5609C53.3566 44.6869 53.0778 44.7921 52.8028 44.8766C52.61 45.1931 52.4003 45.4903 52.1737 45.7676C51.9471 46.0449 51.7097 46.2692 51.4608 46.4397C51.2135 46.6095 50.9593 46.6948 50.6996 46.6948ZM50.6436 46.4566C50.7549 46.4566 50.9424 46.3591 51.2058 46.1632C51.4693 45.9673 51.7497 45.6248 52.0469 45.1347C51.7428 45.2438 51.4601 45.3513 51.2005 45.4581C50.9408 45.5641 50.7327 45.6793 50.5767 45.8037C50.4208 45.9274 50.3432 46.071 50.3432 46.2347C50.3432 46.2746 50.3655 46.3215 50.41 46.376C50.4546 46.4298 50.5322 46.4566 50.6436 46.4566Z" fill="#0D0C22"/>
<path d="M54.998 44.69C54.9012 44.69 54.8183 44.6738 54.7476 44.6416C54.6769 44.6093 54.6416 44.5586 54.6416 44.4895C54.6416 44.4349 54.6746 44.3842 54.7415 44.3374C54.8083 44.2905 54.892 44.2529 54.9919 44.226C55.0917 44.1991 55.1901 44.1853 55.2868 44.1853C55.3759 44.1853 55.4466 44.1976 55.4981 44.2222C55.5495 44.2468 55.5757 44.2944 55.5757 44.3635C55.5757 44.4134 55.548 44.4626 55.4919 44.5118C55.4358 44.5609 55.3636 44.6032 55.2745 44.6377C55.1854 44.6723 55.0948 44.69 54.998 44.69Z" fill="#0D0C22"/>
<path d="M12.9709 30.8175C9.22388 30.8175 7.35039 28.91 7.35039 25.0948C7.35039 23.9821 7.61154 22.6309 8.13385 21.0413C8.67887 19.4516 9.47368 17.8052 10.5183 16.1021C11.5629 14.3762 12.7438 12.7752 14.0609 11.2991C15.378 9.82301 16.9223 8.60807 18.6936 7.65429C20.4649 6.70051 22.2475 6.22362 24.0415 6.22362C24.8818 6.22362 25.529 6.32581 25.9832 6.53019C26.4373 6.71186 26.6758 6.8027 26.6985 6.8027C26.7439 6.8027 27.0278 6.68916 27.5501 6.46207C28.0951 6.23497 28.731 6.12143 29.4577 6.12143C30.2071 6.12143 30.5817 6.33717 30.5817 6.76864C30.5817 7.1774 30.1389 8.08576 29.2533 9.49372C28.3903 10.9017 27.3457 12.2529 26.1194 13.5473C24.8931 14.8417 23.9166 15.4889 23.19 15.4889C23.0991 15.5116 22.9856 15.523 22.8493 15.523C22.4178 15.523 22.2021 15.3981 22.2021 15.1483C22.2021 15.1029 22.3611 14.8531 22.679 14.3989C22.9969 13.922 23.3149 13.2975 23.6328 12.5254C23.9507 11.7306 24.1097 11.0947 24.1097 10.6178C24.1097 10.1409 24.087 9.8003 24.0415 9.59591C23.9961 9.39153 23.8372 9.15309 23.5647 8.88058C23.3149 8.60807 22.9629 8.47182 22.5087 8.47182C21.2824 8.47182 19.8177 9.40289 18.1145 11.265C16.434 13.1272 14.9806 15.3186 13.7543 17.8393C12.5508 20.3373 11.949 22.4606 11.949 24.2092C11.949 26.2984 12.9028 27.343 14.8103 27.343C17.0812 27.343 19.284 25.8783 21.4186 22.9488C21.5095 22.7672 21.6003 22.6763 21.6912 22.6763C21.8047 22.6763 21.8842 22.6877 21.9296 22.7104C21.9977 22.7104 22.0772 22.7785 22.168 22.9148C22.2816 23.0283 22.3384 23.2554 22.3384 23.596C22.3384 23.9367 22.0999 24.5044 21.623 25.2992C21.1688 26.094 20.5557 26.9116 19.7836 27.7518C19.0115 28.592 18.0123 29.3187 16.786 29.9319C15.5597 30.5223 14.288 30.8175 12.9709 30.8175ZM21.7524 31.2944C21.7524 30.3861 22.1271 28.9781 22.8765 27.0705C23.6259 25.1403 24.4661 23.2668 25.3972 21.45C26.3282 19.6333 27.5886 17.3965 29.1782 14.7395C31.54 10.8108 33.9698 6.91625 36.4678 3.05571C36.8539 2.44256 37.4557 1.94296 38.2732 1.55691C39.0907 1.17086 39.8288 0.977828 40.4873 0.977828C41.1459 0.977828 41.4865 1.1595 41.5092 1.52285C41.5092 1.63639 41.4411 1.76129 41.3049 1.89755C40.5327 2.60153 39.2383 4.23658 37.4216 6.8027C35.6049 9.34612 33.6746 12.2642 31.6308 15.557C29.6097 18.8499 27.827 22.3243 26.2828 25.9805C24.7613 29.6367 24.0006 32.6229 24.0006 34.9392C24.0006 35.2799 23.8984 35.4502 23.694 35.4502C23.3079 35.4502 22.9787 35.3026 22.7061 35.0073C22.4336 34.7348 22.2406 34.3828 22.1271 33.9514C21.8773 33.0884 21.7524 32.2028 21.7524 31.2944ZM29.6849 30.4428C29.1626 30.193 28.7311 29.7502 28.3905 29.1143C28.0726 28.4785 27.9136 27.695 27.9136 26.764C27.9136 25.3106 28.3791 23.7891 29.3102 22.1994C30.264 20.6098 31.5925 19.2473 33.2957 18.1118C35.0215 16.9764 36.8383 16.4086 38.7458 16.4086C39.6315 16.4086 40.3695 16.6471 40.96 17.124C41.5504 17.6009 41.8456 18.0777 41.8456 18.5546C41.8456 19.0088 41.7775 19.3722 41.6412 19.6447C41.505 19.9172 41.4369 20.0989 41.4369 20.1897C41.4369 20.4622 41.6526 20.5985 42.0841 20.5985C42.5155 20.5985 42.8448 20.5417 43.0719 20.4281C43.299 20.3146 43.4352 20.2578 43.4807 20.2578C43.6623 20.2578 43.7532 20.4963 43.7532 20.9732C43.7532 21.4273 43.5261 21.9723 43.0719 22.6082C42.6177 23.2213 42.0614 23.6755 41.4028 23.9707C41.312 24.1524 41.1871 24.4136 41.0281 24.7542C40.8691 25.0721 40.4944 25.6399 39.904 26.4574C39.3136 27.2522 38.6777 27.9675 37.9964 28.6034C37.3379 29.2165 36.4522 29.7729 35.3395 30.2725C34.2494 30.7948 33.2502 31.056 32.3419 31.056C31.4335 31.056 30.5479 30.8516 29.6849 30.4428ZM37.2811 24.5839C37.2811 24.4022 37.1789 24.3114 36.9745 24.3114C36.6793 24.3114 36.3387 24.3795 35.9526 24.5158C35.5893 24.652 35.3849 24.7201 35.3395 24.7201C35.2032 24.7201 35.1351 24.618 35.1351 24.4136C35.1351 23.5279 35.453 22.7672 36.0889 22.1313C36.3387 21.8588 36.702 21.6317 37.1789 21.45C37.6558 21.2457 38.0191 21.0186 38.2689 20.7688C38.5414 20.4963 38.6777 20.0421 38.6777 19.4062C38.6777 18.6341 38.2689 18.2481 37.4514 18.2481C35.998 18.2481 34.6128 19.2813 33.2957 21.3479C31.9785 23.3917 31.32 25.2197 31.32 26.8321C31.32 27.3771 31.5016 27.8426 31.865 28.2287C32.251 28.6147 32.7052 28.8078 33.2275 28.8078C34.4084 28.8078 35.3735 28.3195 36.1229 27.343C36.895 26.3438 37.2811 25.4241 37.2811 24.5839ZM59.8237 8.23337L61.4929 8.16524C61.7199 8.16524 61.8335 8.21066 61.8335 8.3015C61.8335 8.39234 61.8108 8.50588 61.7654 8.64213C61.7199 8.77839 61.6178 8.94871 61.4588 9.15309C61.3225 9.35747 61.1522 9.53914 60.9478 9.69811C60.4028 10.1296 59.7215 10.3453 58.904 10.3453C58.1092 10.3453 57.5188 10.368 57.1327 10.4134C56.7694 10.4589 56.4514 10.5724 56.1789 10.7541C55.9064 10.9357 55.7248 11.072 55.6339 11.1628C55.5431 11.2537 55.3841 11.4808 55.157 11.8441C54.9299 12.2075 54.771 12.4573 54.6801 12.5935C53.4766 14.274 51.5236 17.4419 48.8212 22.0972C46.1415 26.7526 44.4724 30.352 43.8139 32.8954C43.7457 33.1225 43.53 33.236 43.1666 33.236C42.826 33.236 42.3491 32.9408 41.736 32.3504C41.1228 31.76 40.8163 31.1582 40.8163 30.545C40.8163 29.9319 41.736 28.1038 43.5754 25.0608C45.4375 22.0178 47.2997 19.0315 49.1618 16.1021C51.024 13.1499 51.955 11.5148 51.955 11.1969C51.955 10.8563 51.8188 10.6519 51.5463 10.5838C51.2738 10.4929 50.7969 10.4475 50.1156 10.4475H48.9915C48.6963 10.4475 48.5487 10.3113 48.5487 10.0387C48.5487 9.76623 48.6736 9.48237 48.9234 9.18715C49.1959 8.86923 49.5933 8.59672 50.1156 8.36963C50.6606 8.14253 51.2056 7.91544 51.7507 7.68835C52.3184 7.46126 53.0451 6.95031 53.9307 6.15549C54.8391 5.36068 55.7475 4.33877 56.6558 3.08977C57.2235 2.31766 58.2 1.93161 59.5853 1.93161C60.0622 1.93161 60.3006 2.07922 60.3006 2.37444C60.3006 2.55611 59.7897 3.38499 58.7678 4.86108C57.7459 6.33717 57.2349 7.26824 57.2349 7.65429C57.2349 8.01764 57.5755 8.19931 58.2568 8.19931C58.5293 8.22202 59.0516 8.23337 59.8237 8.23337ZM64.2847 17.3965C65.2612 17.3965 65.7495 17.9642 65.7495 19.0997C65.7495 20.2351 65.3521 21.6658 64.5572 23.3917C63.3991 25.8215 62.082 27.9221 60.6059 29.6934C59.9019 30.5337 59.0162 30.9538 57.9489 30.9538C57.6083 30.9538 57.438 30.8629 57.438 30.6813L57.5742 30.3066C58.6415 28.7396 59.584 27.1273 60.4015 25.4695C61.2417 23.7891 61.6618 22.5741 61.6618 21.8247C61.6618 21.6885 61.6164 21.5749 61.5256 21.4841C61.4575 21.3933 61.3326 21.3365 61.1509 21.3138C60.2198 21.3138 58.9595 22.0745 57.3698 23.596C55.8029 25.1176 54.4404 26.6504 53.2822 28.1946C52.1467 29.7388 51.4087 30.8062 51.0681 31.3966C50.7501 32.0098 50.4209 32.3731 50.0802 32.4866C49.7396 32.6229 49.1832 32.691 48.4111 32.691C47.639 32.691 47.2529 32.5548 47.2529 32.2823C47.2529 32.1914 47.3665 31.9757 47.5936 31.6351C47.798 31.2944 48.6041 29.7616 50.0121 27.0365C51.4428 24.3114 52.9416 21.5409 54.5085 18.725C56.0981 15.8863 57.824 12.9909 59.6861 10.0387C61.571 7.08656 63.4445 4.6794 65.3066 2.81726C67.1915 0.932411 68.8265 -0.010015 70.2118 -0.010015C71.2791 -0.010015 71.8128 0.614484 71.8128 1.86348C71.8128 4.27064 70.7114 6.84812 68.5086 9.59591C66.3285 12.3437 64.3301 14.1377 62.5134 14.978C62.1047 15.1596 61.6732 15.2505 61.219 15.2505C60.7875 15.2505 60.5718 15.1483 60.5718 14.9439L60.7762 14.6033C63.0017 13.059 64.7616 11.2764 66.056 9.25528C67.3732 7.23417 68.0317 5.81486 68.0317 4.99733C68.0317 4.72482 67.9977 4.54315 67.9295 4.45231C67.8614 4.33877 67.7024 4.282 67.4526 4.282C66.6351 4.282 65.2953 5.61048 63.4331 8.26744C61.5937 10.9244 59.9359 13.6608 58.4599 16.4768C56.9838 19.2927 56.2457 21.0072 56.2457 21.6204C56.2457 21.8702 56.3252 21.9951 56.4842 21.9951C56.6658 21.9951 56.9043 21.8815 57.1995 21.6544C57.5401 21.3365 57.9716 20.9391 58.4939 20.4622C59.0389 19.9853 59.9359 19.3608 61.1849 18.5887C62.4567 17.7939 63.4899 17.3965 64.2847 17.3965ZM57.294 51.3579C56.3402 51.3579 55.8633 50.563 55.8633 48.9734C55.8633 47.3838 56.3288 45.6125 57.2599 43.6595C58.191 41.7292 59.3151 39.9466 60.6322 38.3115C61.9266 36.6992 63.3119 35.3253 64.788 34.1898C66.2641 33.0544 67.5017 32.4866 68.5009 32.4866C68.8415 32.4866 69.0119 32.5661 69.0119 32.7251C69.0119 32.884 68.8756 33.0317 68.6031 33.1679C67.7401 33.6221 66.6388 34.5872 65.2989 36.0633C63.9818 37.5621 62.7896 39.2653 61.7222 41.1729C60.6322 43.1031 60.0872 44.7268 60.0872 46.0439C60.0872 46.6117 60.2916 46.8955 60.7003 46.8955C61.4952 46.8955 62.6987 45.7828 64.3111 43.5573C66.9226 39.992 69.5909 35.4502 72.316 29.9319C73.1335 28.2968 73.5423 27.3203 73.5423 27.0024C73.5423 26.6845 73.4515 26.5255 73.2698 26.5255C73.0427 26.5255 72.8156 26.6391 72.5885 26.8662C70.0451 29.0462 68.0694 30.1363 66.6615 30.1363C65.6396 30.1363 65.1286 29.5912 65.1286 28.5012C65.1286 27.3885 65.7304 25.6853 66.934 23.3917C68.1603 21.0753 69.3979 19.2927 70.6469 18.0437C70.9194 17.7712 71.2941 17.5554 71.771 17.3965C72.2479 17.2148 72.7361 17.124 73.2357 17.124C73.758 17.124 74.0192 17.2375 74.0192 17.4646C74.0192 17.5554 73.6559 18.0777 72.9292 19.0315C70.7264 21.961 69.625 24.0502 69.625 25.2992C69.625 25.8442 69.8634 26.1168 70.3403 26.1168C71.1806 26.1168 72.475 25.2992 74.2236 23.6642C75.9949 22.0291 77.5391 20.1102 78.8562 17.9074C79.265 17.0899 80.1734 16.6811 81.5813 16.6811C82.2626 16.6811 82.6032 16.8174 82.6032 17.0899C82.6032 17.158 82.5692 17.2489 82.501 17.3624C80.2983 20.9959 78.2885 24.5044 76.4718 27.8881C74.6551 31.249 73.1903 33.8378 72.0776 35.6546C70.9875 37.494 69.7613 39.4015 68.3987 41.3772C67.0589 43.3529 65.7645 45.0447 64.5155 46.4527C63.2892 47.8834 62.0402 49.0529 60.7685 49.9613C59.4741 50.8923 58.3159 51.3579 57.294 51.3579Z" fill="#0D0C22"/>
</svg>
