<svg width="20" height="21" viewBox="0 0 20 21" fill="none" xmlns="http://www.w3.org/2000/svg">
<path d="M8.5 4.5H11.5C11.5 4.10218 11.342 3.72064 11.0607 3.43934C10.7794 3.15804 10.3978 3 10 3C9.60218 3 9.22064 3.15804 8.93934 3.43934C8.65804 3.72064 8.5 4.10218 8.5 4.5ZM7.5 4.5C7.5 3.83696 7.76339 3.20107 8.23223 2.73223C8.70107 2.26339 9.33696 2 10 2C10.663 2 11.2989 2.26339 11.7678 2.73223C12.2366 3.20107 12.5 3.83696 12.5 4.5H17.5C17.6326 4.5 17.7598 4.55268 17.8536 4.64645C17.9473 4.74021 18 4.86739 18 5C18 5.13261 17.9473 5.25979 17.8536 5.35355C17.7598 5.44732 17.6326 5.5 17.5 5.5H16.446L15.252 15.844C15.1676 16.5752 14.8173 17.2498 14.2679 17.7396C13.7184 18.2293 13.008 18.4999 12.272 18.5H7.728C6.99195 18.4999 6.28161 18.2293 5.73214 17.7396C5.18266 17.2498 4.8324 16.5752 4.748 15.844L3.554 5.5H2.5C2.36739 5.5 2.24021 5.44732 2.14645 5.35355C2.05268 5.25979 2 5.13261 2 5C2 4.86739 2.05268 4.74021 2.14645 4.64645C2.24021 4.55268 2.36739 4.5 2.5 4.5H7.5ZM5.741 15.73C5.79743 16.2174 6.03105 16.667 6.39742 16.9934C6.76379 17.3198 7.23735 17.5001 7.728 17.5H12.272C12.7627 17.5001 13.2362 17.3198 13.6026 16.9934C13.969 16.667 14.2026 16.2174 14.259 15.73L15.439 5.5H4.561L5.741 15.73ZM8.5 8C8.63261 8 8.75979 8.05268 8.85355 8.14645C8.94732 8.24021 9 8.36739 9 8.5V14.5C9 14.6326 8.94732 14.7598 8.85355 14.8536C8.75979 14.9473 8.63261 15 8.5 15C8.36739 15 8.24021 14.9473 8.14645 14.8536C8.05268 14.7598 8 14.6326 8 14.5V8.5C8 8.36739 8.05268 8.24021 8.14645 8.14645C8.24021 8.05268 8.36739 8 8.5 8ZM12 8.5C12 8.36739 11.9473 8.24021 11.8536 8.14645C11.7598 8.05268 11.6326 8 11.5 8C11.3674 8 11.2402 8.05268 11.1464 8.14645C11.0527 8.24021 11 8.36739 11 8.5V14.5C11 14.6326 11.0527 14.7598 11.1464 14.8536C11.2402 14.9473 11.3674 15 11.5 15C11.6326 15 11.7598 14.9473 11.8536 14.8536C11.9473 14.7598 12 14.6326 12 14.5V8.5Z" fill="#807D7E" fill-opacity="0.7"/>
</svg>
