<svg width="159" height="20" viewBox="0 0 159 20" fill="none" xmlns="http://www.w3.org/2000/svg">
<path d="M10.0004 14.3917L13.4588 16.4834C14.0921 16.8667 14.8671 16.3 14.7004 15.5834L13.7838 11.65L16.8421 9.00003C17.4004 8.5167 17.1004 7.60003 16.3671 7.5417L12.3421 7.20003L10.7671 3.48336C10.4838 2.80836 9.51709 2.80836 9.23376 3.48336L7.65876 7.1917L3.63376 7.53336C2.90043 7.5917 2.60043 8.50836 3.15876 8.9917L6.21709 11.6417L5.30043 15.575C5.13376 16.2917 5.90876 16.8584 6.54209 16.475L10.0004 14.3917Z" fill="#FFC700"/>
<path d="M34.7504 14.3917L38.2088 16.4834C38.8421 16.8667 39.6171 16.3 39.4504 15.5834L38.5338 11.65L41.5921 9.00003C42.1504 8.5167 41.8504 7.60003 41.1171 7.5417L37.0921 7.20003L35.5171 3.48336C35.2338 2.80836 34.2671 2.80836 33.9838 3.48336L32.4088 7.1917L28.3838 7.53336C27.6504 7.5917 27.3504 8.50836 27.9088 8.9917L30.9671 11.6417L30.0504 15.575C29.8838 16.2917 30.6588 16.8584 31.2921 16.475L34.7504 14.3917Z" fill="#FFC700"/>
<path d="M59.5004 14.3917L62.9588 16.4834C63.5921 16.8667 64.3671 16.3 64.2004 15.5834L63.2838 11.65L66.3421 9.00003C66.9004 8.5167 66.6004 7.60003 65.8671 7.5417L61.8421 7.20003L60.2671 3.48336C59.9838 2.80836 59.0171 2.80836 58.7338 3.48336L57.1588 7.1917L53.1338 7.53336C52.4004 7.5917 52.1004 8.50836 52.6588 8.9917L55.7171 11.6417L54.8004 15.575C54.6338 16.2917 55.4088 16.8584 56.0421 16.475L59.5004 14.3917Z" fill="#FFC700"/>
<path d="M84.2504 14.3917L87.7088 16.4834C88.3421 16.8667 89.1171 16.3 88.9504 15.5834L88.0338 11.65L91.0921 9.00003C91.6504 8.5167 91.3504 7.60003 90.6171 7.5417L86.5921 7.20003L85.0171 3.48336C84.7338 2.80836 83.7671 2.80836 83.4838 3.48336L81.9088 7.1917L77.8838 7.53336C77.1504 7.5917 76.8504 8.50836 77.4088 8.9917L80.4671 11.6417L79.5504 15.575C79.3838 16.2917 80.1588 16.8584 80.7921 16.475L84.2504 14.3917Z" fill="#FFC700"/>
<path d="M109 14.3917L112.459 16.4834C113.092 16.8667 113.867 16.3 113.7 15.5834L112.784 11.65L115.842 9.00003C116.4 8.5167 116.1 7.60003 115.367 7.5417L111.342 7.20003L109.767 3.48336C109.484 2.80836 108.517 2.80836 108.234 3.48336L106.659 7.1917L102.634 7.53336C101.9 7.5917 101.6 8.50836 102.159 8.9917L105.217 11.6417L104.3 15.575C104.134 16.2917 104.909 16.8584 105.542 16.475L109 14.3917Z" fill="#FFC700"/>
<path d="M132.616 10.156C132.616 9.204 132.807 8.28 133.19 7.384C133.573 6.47867 134.035 5.56867 134.576 4.654L135.304 5.004C135.117 5.284 134.917 5.62933 134.702 6.04C134.497 6.45067 134.301 6.894 134.114 7.37C133.937 7.83667 133.792 8.31267 133.68 8.798C133.568 9.28333 133.512 9.75 133.512 10.198C133.512 10.926 133.671 11.7193 133.988 12.578C134.305 13.4367 134.739 14.2907 135.29 15.14L134.576 15.518C134.184 14.93 133.839 14.3373 133.54 13.74C133.251 13.1427 133.022 12.5453 132.854 11.948C132.695 11.3413 132.616 10.744 132.616 10.156ZM139.428 17.086C138.728 17.086 138.093 16.9087 137.524 16.554C136.954 16.2087 136.53 15.7513 136.25 15.182L136.88 14.706C137.141 15.1633 137.496 15.532 137.944 15.812C138.401 16.092 138.9 16.232 139.442 16.232C139.908 16.232 140.324 16.1293 140.688 15.924C141.061 15.7187 141.355 15.434 141.57 15.07C141.794 14.706 141.906 14.286 141.906 13.81C141.906 13.3527 141.798 12.9513 141.584 12.606C141.378 12.2513 141.094 11.976 140.73 11.78C140.375 11.584 139.974 11.486 139.526 11.486C139.096 11.486 138.686 11.584 138.294 11.78C137.902 11.9667 137.584 12.242 137.342 12.606H136.46L137.566 7.006H142.368V7.888H138.28L137.594 11.458C137.836 11.1967 138.135 10.996 138.49 10.856C138.844 10.7067 139.227 10.632 139.638 10.632C140.244 10.632 140.79 10.7673 141.276 11.038C141.77 11.3087 142.162 11.682 142.452 12.158C142.741 12.634 142.886 13.18 142.886 13.796C142.886 14.4493 142.727 15.0233 142.41 15.518C142.102 16.0127 141.686 16.3953 141.164 16.666C140.641 16.946 140.062 17.086 139.428 17.086ZM144.299 15V13.628H145.125V15H144.299ZM153.839 10.898C153.839 11.7193 153.685 12.452 153.377 13.096C153.078 13.7307 152.663 14.23 152.131 14.594C151.599 14.958 150.997 15.14 150.325 15.14C149.653 15.14 149.051 14.958 148.519 14.594C147.996 14.23 147.581 13.7307 147.273 13.096C146.965 12.452 146.811 11.7193 146.811 10.898C146.811 10.0767 146.965 9.34867 147.273 8.714C147.581 8.07 147.996 7.566 148.519 7.202C149.051 6.82867 149.653 6.642 150.325 6.642C150.997 6.642 151.599 6.82867 152.131 7.202C152.663 7.566 153.078 8.07 153.377 8.714C153.685 9.34867 153.839 10.0767 153.839 10.898ZM152.873 10.898C152.873 10.2353 152.766 9.652 152.551 9.148C152.336 8.644 152.038 8.252 151.655 7.972C151.272 7.68267 150.829 7.538 150.325 7.538C149.821 7.538 149.378 7.68267 148.995 7.972C148.612 8.252 148.309 8.644 148.085 9.148C147.87 9.652 147.763 10.2353 147.763 10.898C147.763 11.5607 147.87 12.144 148.085 12.648C148.309 13.152 148.612 13.544 148.995 13.824C149.378 14.104 149.821 14.244 150.325 14.244C150.829 14.244 151.272 14.104 151.655 13.824C152.038 13.5347 152.336 13.1427 152.551 12.648C152.766 12.144 152.873 11.5607 152.873 10.898ZM157.503 10.156C157.503 10.744 157.424 11.3413 157.265 11.948C157.107 12.5453 156.878 13.1427 156.579 13.74C156.281 14.3373 155.935 14.93 155.543 15.518L154.843 15.14C155.394 14.2907 155.828 13.4367 156.145 12.578C156.463 11.7193 156.621 10.926 156.621 10.198C156.621 9.75 156.565 9.28333 156.453 8.798C156.341 8.31267 156.192 7.83667 156.005 7.37C155.819 6.894 155.623 6.45067 155.417 6.04C155.212 5.62933 155.011 5.284 154.815 5.004L155.557 4.654C156.099 5.56867 156.556 6.47867 156.929 7.384C157.312 8.28 157.503 9.204 157.503 10.156Z" fill="#807D7E"/>
</svg>
