<svg width="413" height="20" viewBox="0 0 413 20" fill="none" xmlns="http://www.w3.org/2000/svg">
<path d="M9.99994 14.3916L13.4583 16.4833C14.0916 16.8666 14.8666 16.3 14.6999 15.5833L13.7833 11.65L16.8416 8.99997C17.3999 8.51663 17.0999 7.59997 16.3666 7.54163L12.3416 7.19997L10.7666 3.4833C10.4833 2.8083 9.51661 2.8083 9.23327 3.4833L7.65827 7.19163L3.63327 7.5333C2.89994 7.59163 2.59994 8.5083 3.15827 8.99163L6.21661 11.6416L5.29994 15.575C5.13327 16.2916 5.90827 16.8583 6.5416 16.475L9.99994 14.3916Z" fill="#FFC700"/>
<path d="M34.7499 14.3916L38.2083 16.4833C38.8416 16.8666 39.6166 16.3 39.4499 15.5833L38.5333 11.65L41.5916 8.99997C42.1499 8.51663 41.8499 7.59997 41.1166 7.54163L37.0916 7.19997L35.5166 3.4833C35.2333 2.8083 34.2666 2.8083 33.9833 3.4833L32.4083 7.19163L28.3833 7.5333C27.6499 7.59163 27.3499 8.5083 27.9083 8.99163L30.9666 11.6416L30.0499 15.575C29.8833 16.2916 30.6583 16.8583 31.2916 16.475L34.7499 14.3916Z" fill="#FFC700"/>
<path d="M59.4999 14.3916L62.9583 16.4833C63.5916 16.8666 64.3666 16.3 64.1999 15.5833L63.2833 11.65L66.3416 8.99997C66.8999 8.51663 66.5999 7.59997 65.8666 7.54163L61.8416 7.19997L60.2666 3.4833C59.9833 2.8083 59.0166 2.8083 58.7333 3.4833L57.1583 7.19163L53.1333 7.5333C52.3999 7.59163 52.0999 8.5083 52.6583 8.99163L55.7166 11.6416L54.7999 15.575C54.6333 16.2916 55.4083 16.8583 56.0416 16.475L59.4999 14.3916Z" fill="#FFC700"/>
<path d="M84.2499 14.3916L87.7083 16.4833C88.3416 16.8666 89.1166 16.3 88.9499 15.5833L88.0333 11.65L91.0916 8.99997C91.6499 8.51663 91.3499 7.59997 90.6166 7.54163L86.5916 7.19997L85.0166 3.4833C84.7333 2.8083 83.7666 2.8083 83.4833 3.4833L81.9083 7.19163L77.8833 7.5333C77.1499 7.59163 76.8499 8.5083 77.4083 8.99163L80.4666 11.6416L79.5499 15.575C79.3833 16.2916 80.1583 16.8583 80.7916 16.475L84.2499 14.3916Z" fill="#FFC700"/>
<path d="M109 14.3916L112.458 16.4833C113.092 16.8666 113.867 16.3 113.7 15.5833L112.783 11.65L115.842 8.99997C116.4 8.51663 116.1 7.59997 115.367 7.54163L111.342 7.19997L109.767 3.4833C109.483 2.8083 108.517 2.8083 108.233 3.4833L106.658 7.19163L102.633 7.5333C101.9 7.59163 101.6 8.5083 102.158 8.99163L105.217 11.6416L104.3 15.575C104.133 16.2916 104.908 16.8583 105.542 16.475L109 14.3916Z" fill="#FFC700"/>
<path d="M132.704 9.964C132.704 8.876 132.923 7.82 133.36 6.796C133.797 5.76133 134.325 4.72133 134.944 3.676L135.776 4.076C135.563 4.396 135.333 4.79067 135.088 5.26C134.853 5.72933 134.629 6.236 134.416 6.78C134.213 7.31333 134.048 7.85733 133.92 8.412C133.792 8.96667 133.728 9.5 133.728 10.012C133.728 10.844 133.909 11.7507 134.272 12.732C134.635 13.7133 135.131 14.6893 135.76 15.66L134.944 16.092C134.496 15.42 134.101 14.7427 133.76 14.06C133.429 13.3773 133.168 12.6947 132.976 12.012C132.795 11.3187 132.704 10.636 132.704 9.964ZM140.489 17.884C139.689 17.884 138.964 17.6813 138.313 17.276C137.662 16.8813 137.177 16.3587 136.857 15.708L137.577 15.164C137.876 15.6867 138.281 16.108 138.793 16.428C139.316 16.748 139.886 16.908 140.505 16.908C141.038 16.908 141.513 16.7907 141.929 16.556C142.356 16.3213 142.692 15.996 142.937 15.58C143.193 15.164 143.321 14.684 143.321 14.14C143.321 13.6173 143.198 13.1587 142.953 12.764C142.718 12.3587 142.393 12.044 141.977 11.82C141.572 11.596 141.113 11.484 140.601 11.484C140.11 11.484 139.641 11.596 139.193 11.82C138.745 12.0333 138.382 12.348 138.105 12.764H137.097L138.361 6.364H143.849V7.372H139.177L138.393 11.452C138.67 11.1533 139.012 10.924 139.417 10.764C139.822 10.5933 140.26 10.508 140.729 10.508C141.422 10.508 142.046 10.6627 142.601 10.972C143.166 11.2813 143.614 11.708 143.945 12.252C144.276 12.796 144.441 13.42 144.441 14.124C144.441 14.8707 144.26 15.5267 143.897 16.092C143.545 16.6573 143.07 17.0947 142.473 17.404C141.876 17.724 141.214 17.884 140.489 17.884ZM146.056 15.5V13.932H147V15.5H146.056ZM156.959 10.812C156.959 11.7507 156.783 12.588 156.431 13.324C156.09 14.0493 155.615 14.62 155.007 15.036C154.399 15.452 153.711 15.66 152.943 15.66C152.175 15.66 151.487 15.452 150.879 15.036C150.282 14.62 149.807 14.0493 149.455 13.324C149.103 12.588 148.927 11.7507 148.927 10.812C148.927 9.87333 149.103 9.04133 149.455 8.316C149.807 7.58 150.282 7.004 150.879 6.588C151.487 6.16133 152.175 5.948 152.943 5.948C153.711 5.948 154.399 6.16133 155.007 6.588C155.615 7.004 156.09 7.58 156.431 8.316C156.783 9.04133 156.959 9.87333 156.959 10.812ZM155.855 10.812C155.855 10.0547 155.732 9.388 155.487 8.812C155.242 8.236 154.9 7.788 154.463 7.468C154.026 7.13733 153.519 6.972 152.943 6.972C152.367 6.972 151.86 7.13733 151.423 7.468C150.986 7.788 150.639 8.236 150.383 8.812C150.138 9.388 150.015 10.0547 150.015 10.812C150.015 11.5693 150.138 12.236 150.383 12.812C150.639 13.388 150.986 13.836 151.423 14.156C151.86 14.476 152.367 14.636 152.943 14.636C153.519 14.636 154.026 14.476 154.463 14.156C154.9 13.8253 155.242 13.3773 155.487 12.812C155.732 12.236 155.855 11.5693 155.855 10.812ZM161.147 9.964C161.147 10.636 161.056 11.3187 160.875 12.012C160.693 12.6947 160.432 13.3773 160.091 14.06C159.749 14.7427 159.355 15.42 158.907 16.092L158.107 15.66C158.736 14.6893 159.232 13.7133 159.595 12.732C159.957 11.7507 160.139 10.844 160.139 10.012C160.139 9.5 160.075 8.96667 159.947 8.412C159.819 7.85733 159.648 7.31333 159.435 6.78C159.221 6.236 158.997 5.72933 158.763 5.26C158.528 4.79067 158.299 4.396 158.075 4.076L158.923 3.676C159.541 4.72133 160.064 5.76133 160.491 6.796C160.928 7.82 161.147 8.876 161.147 9.964Z" fill="#807D7E"/>
<path d="M180.376 18.08V3.6H181.32V18.08H180.376ZM197.355 15.008V16H191.931V15.008H194.203V8.16C194.118 8.288 193.974 8.42667 193.771 8.576C193.569 8.72533 193.334 8.864 193.067 8.992C192.811 9.12 192.555 9.22667 192.299 9.312C192.043 9.39733 191.809 9.44 191.595 9.44V8.384C191.841 8.384 192.107 8.31467 192.395 8.176C192.683 8.03733 192.961 7.87733 193.227 7.696C193.494 7.51467 193.718 7.344 193.899 7.184C194.081 7.024 194.182 6.91733 194.203 6.864H195.323V15.008H197.355ZM198.743 16V14.432H199.687V16H198.743ZM204.926 18.384C204.126 18.384 203.401 18.1813 202.75 17.776C202.1 17.3813 201.614 16.8587 201.294 16.208L202.014 15.664C202.313 16.1867 202.718 16.608 203.23 16.928C203.753 17.248 204.324 17.408 204.942 17.408C205.476 17.408 205.95 17.2907 206.366 17.056C206.793 16.8213 207.129 16.496 207.374 16.08C207.63 15.664 207.758 15.184 207.758 14.64C207.758 14.1173 207.636 13.6587 207.39 13.264C207.156 12.8587 206.83 12.544 206.414 12.32C206.009 12.096 205.55 11.984 205.038 11.984C204.548 11.984 204.078 12.096 203.63 12.32C203.182 12.5333 202.82 12.848 202.542 13.264H201.534L202.798 6.864H208.286V7.872H203.614L202.83 11.952C203.108 11.6533 203.449 11.424 203.854 11.264C204.26 11.0933 204.697 11.008 205.166 11.008C205.86 11.008 206.484 11.1627 207.038 11.472C207.604 11.7813 208.052 12.208 208.382 12.752C208.713 13.296 208.878 13.92 208.878 14.624C208.878 15.3707 208.697 16.0267 208.334 16.592C207.982 17.1573 207.508 17.5947 206.91 17.904C206.313 18.224 205.652 18.384 204.926 18.384ZM216.605 16L213.517 11.728L211.741 13.392V16H210.653V4.32H211.741V12.224L216.461 7.68H217.661L214.253 11.088L217.789 16H216.605ZM227.376 8.624C226.65 8.64533 226.01 8.848 225.456 9.232C224.912 9.616 224.528 10.144 224.304 10.816V16H223.216V7.664H224.24V9.664C224.528 9.07733 224.906 8.60267 225.376 8.24C225.856 7.87733 226.362 7.67467 226.896 7.632C227.002 7.62133 227.093 7.616 227.168 7.616C227.253 7.616 227.322 7.62133 227.376 7.632V8.624ZM232.159 16.16C231.562 16.16 231.007 16.048 230.495 15.824C229.983 15.5893 229.541 15.2747 229.167 14.88C228.794 14.4747 228.501 14.0107 228.287 13.488C228.085 12.9653 227.983 12.4053 227.983 11.808C227.983 11.0293 228.159 10.3147 228.511 9.664C228.874 9.01333 229.37 8.496 229.999 8.112C230.629 7.71733 231.343 7.52 232.143 7.52C232.965 7.52 233.679 7.71733 234.287 8.112C234.906 8.50667 235.391 9.02933 235.743 9.68C236.095 10.32 236.271 11.024 236.271 11.792C236.271 11.8773 236.271 11.9627 236.271 12.048C236.271 12.1227 236.266 12.1813 236.255 12.224H229.119C229.173 12.8213 229.338 13.3547 229.615 13.824C229.903 14.2827 230.271 14.6507 230.719 14.928C231.178 15.1947 231.674 15.328 232.207 15.328C232.751 15.328 233.263 15.1893 233.743 14.912C234.234 14.6347 234.575 14.272 234.767 13.824L235.711 14.08C235.541 14.4747 235.279 14.832 234.927 15.152C234.575 15.472 234.159 15.7227 233.679 15.904C233.21 16.0747 232.703 16.16 232.159 16.16ZM229.087 11.44H235.247C235.205 10.832 235.039 10.2987 234.751 9.84C234.474 9.38133 234.106 9.024 233.647 8.768C233.199 8.50133 232.703 8.368 232.159 8.368C231.615 8.368 231.119 8.50133 230.671 8.768C230.223 9.024 229.855 9.38667 229.567 9.856C229.29 10.3147 229.13 10.8427 229.087 11.44ZM240.211 16L236.835 7.664H237.971L240.819 14.912L243.683 7.664H244.755L241.379 16H240.211ZM246.263 16V7.664H247.351V16H246.263ZM246.263 5.92V4.32H247.351V5.92H246.263ZM253.347 16.16C252.75 16.16 252.195 16.048 251.683 15.824C251.171 15.5893 250.728 15.2747 250.355 14.88C249.982 14.4747 249.688 14.0107 249.475 13.488C249.272 12.9653 249.171 12.4053 249.171 11.808C249.171 11.0293 249.347 10.3147 249.699 9.664C250.062 9.01333 250.558 8.496 251.187 8.112C251.816 7.71733 252.531 7.52 253.331 7.52C254.152 7.52 254.867 7.71733 255.475 8.112C256.094 8.50667 256.579 9.02933 256.931 9.68C257.283 10.32 257.459 11.024 257.459 11.792C257.459 11.8773 257.459 11.9627 257.459 12.048C257.459 12.1227 257.454 12.1813 257.443 12.224H250.307C250.36 12.8213 250.526 13.3547 250.803 13.824C251.091 14.2827 251.459 14.6507 251.907 14.928C252.366 15.1947 252.862 15.328 253.395 15.328C253.939 15.328 254.451 15.1893 254.931 14.912C255.422 14.6347 255.763 14.272 255.955 13.824L256.899 14.08C256.728 14.4747 256.467 14.832 256.115 15.152C255.763 15.472 255.347 15.7227 254.867 15.904C254.398 16.0747 253.891 16.16 253.347 16.16ZM250.275 11.44H256.435C256.392 10.832 256.227 10.2987 255.939 9.84C255.662 9.38133 255.294 9.024 254.835 8.768C254.387 8.50133 253.891 8.368 253.347 8.368C252.803 8.368 252.307 8.50133 251.859 8.768C251.411 9.024 251.043 9.38667 250.755 9.856C250.478 10.3147 250.318 10.8427 250.275 11.44ZM269.415 7.664H270.487L266.903 16H265.959L264.215 11.856L262.487 16H261.543L257.959 7.664H259.015L262.055 14.88L263.591 11.12L262.183 7.68H263.159L264.215 10.384L265.287 7.68H266.247L264.855 11.12L266.391 14.88L269.415 7.664ZM274.467 16.16C273.785 16.16 273.15 16.048 272.563 15.824C271.977 15.6 271.47 15.2587 271.043 14.8L271.491 14.032C271.961 14.4693 272.43 14.7893 272.899 14.992C273.379 15.184 273.886 15.28 274.419 15.28C275.07 15.28 275.598 15.152 276.003 14.896C276.409 14.6293 276.611 14.2507 276.611 13.76C276.611 13.4293 276.51 13.1787 276.307 13.008C276.115 12.8267 275.833 12.6827 275.459 12.576C275.097 12.4587 274.659 12.336 274.147 12.208C273.571 12.048 273.086 11.8827 272.691 11.712C272.307 11.5307 272.014 11.3067 271.811 11.04C271.619 10.7627 271.523 10.4053 271.523 9.968C271.523 9.424 271.657 8.976 271.923 8.624C272.201 8.26133 272.574 7.98933 273.043 7.808C273.523 7.616 274.057 7.52 274.643 7.52C275.283 7.52 275.849 7.62133 276.339 7.824C276.83 8.02667 277.23 8.30933 277.539 8.672L277.011 9.408C276.713 9.06667 276.355 8.816 275.939 8.656C275.534 8.48533 275.081 8.4 274.579 8.4C274.238 8.4 273.913 8.448 273.603 8.544C273.294 8.62933 273.038 8.77867 272.835 8.992C272.643 9.19467 272.547 9.47733 272.547 9.84C272.547 10.1387 272.622 10.3733 272.771 10.544C272.921 10.704 273.145 10.8427 273.443 10.96C273.742 11.0667 274.11 11.184 274.547 11.312C275.177 11.4827 275.726 11.6587 276.195 11.84C276.665 12.0107 277.027 12.2347 277.283 12.512C277.539 12.7893 277.667 13.1787 277.667 13.68C277.667 14.4587 277.374 15.0667 276.787 15.504C276.201 15.9413 275.427 16.16 274.467 16.16ZM287.798 18.08V3.6H288.742V18.08H287.798ZM300.699 15.008V16H295.275V15.008H297.547V8.16C297.462 8.288 297.318 8.42667 297.115 8.576C296.912 8.72533 296.678 8.864 296.411 8.992C296.155 9.12 295.899 9.22667 295.643 9.312C295.387 9.39733 295.152 9.44 294.939 9.44V8.384C295.184 8.384 295.451 8.31467 295.739 8.176C296.027 8.03733 296.304 7.87733 296.571 7.696C296.838 7.51467 297.062 7.344 297.243 7.184C297.424 7.024 297.526 6.91733 297.547 6.864H298.667V15.008H300.699ZM307.543 15.008V16H302.119V15.008H304.391V8.16C304.306 8.288 304.162 8.42667 303.959 8.576C303.756 8.72533 303.522 8.864 303.255 8.992C302.999 9.12 302.743 9.22667 302.487 9.312C302.231 9.39733 301.996 9.44 301.783 9.44V8.384C302.028 8.384 302.295 8.31467 302.583 8.176C302.871 8.03733 303.148 7.87733 303.415 7.696C303.682 7.51467 303.906 7.344 304.087 7.184C304.268 7.024 304.37 6.91733 304.391 6.864H305.511V15.008H307.543ZM315.043 16L311.955 11.728L310.179 13.392V16H309.091V4.32H310.179V12.224L314.899 7.68H316.099L312.691 11.088L316.227 16H315.043ZM324.389 16.16C323.706 16.16 323.072 16.048 322.485 15.824C321.898 15.6 321.392 15.2587 320.965 14.8L321.413 14.032C321.882 14.4693 322.352 14.7893 322.821 14.992C323.301 15.184 323.808 15.28 324.341 15.28C324.992 15.28 325.52 15.152 325.925 14.896C326.33 14.6293 326.533 14.2507 326.533 13.76C326.533 13.4293 326.432 13.1787 326.229 13.008C326.037 12.8267 325.754 12.6827 325.381 12.576C325.018 12.4587 324.581 12.336 324.069 12.208C323.493 12.048 323.008 11.8827 322.613 11.712C322.229 11.5307 321.936 11.3067 321.733 11.04C321.541 10.7627 321.445 10.4053 321.445 9.968C321.445 9.424 321.578 8.976 321.845 8.624C322.122 8.26133 322.496 7.98933 322.965 7.808C323.445 7.616 323.978 7.52 324.565 7.52C325.205 7.52 325.77 7.62133 326.261 7.824C326.752 8.02667 327.152 8.30933 327.461 8.672L326.933 9.408C326.634 9.06667 326.277 8.816 325.861 8.656C325.456 8.48533 325.002 8.4 324.501 8.4C324.16 8.4 323.834 8.448 323.525 8.544C323.216 8.62933 322.96 8.77867 322.757 8.992C322.565 9.19467 322.469 9.47733 322.469 9.84C322.469 10.1387 322.544 10.3733 322.693 10.544C322.842 10.704 323.066 10.8427 323.365 10.96C323.664 11.0667 324.032 11.184 324.469 11.312C325.098 11.4827 325.648 11.6587 326.117 11.84C326.586 12.0107 326.949 12.2347 327.205 12.512C327.461 12.7893 327.589 13.1787 327.589 13.68C327.589 14.4587 327.296 15.0667 326.709 15.504C326.122 15.9413 325.349 16.16 324.389 16.16ZM332.94 16.16C332.342 16.16 331.788 16.048 331.276 15.824C330.774 15.5893 330.337 15.2747 329.964 14.88C329.601 14.4747 329.318 14.016 329.116 13.504C328.913 12.9813 328.812 12.432 328.812 11.856C328.812 11.2587 328.913 10.704 329.116 10.192C329.318 9.66933 329.606 9.21067 329.98 8.816C330.353 8.41067 330.79 8.096 331.292 7.872C331.804 7.63733 332.358 7.52 332.956 7.52C333.553 7.52 334.102 7.63733 334.604 7.872C335.105 8.096 335.542 8.41067 335.916 8.816C336.289 9.21067 336.577 9.66933 336.78 10.192C336.982 10.704 337.084 11.2587 337.084 11.856C337.084 12.432 336.982 12.9813 336.78 13.504C336.577 14.016 336.289 14.4747 335.916 14.88C335.553 15.2747 335.116 15.5893 334.604 15.824C334.102 16.048 333.548 16.16 332.94 16.16ZM329.916 11.872C329.916 12.4907 330.049 13.056 330.316 13.568C330.593 14.0693 330.961 14.4693 331.42 14.768C331.878 15.056 332.385 15.2 332.94 15.2C333.494 15.2 334.001 15.0507 334.46 14.752C334.918 14.4533 335.286 14.048 335.564 13.536C335.841 13.0133 335.98 12.448 335.98 11.84C335.98 11.2213 335.841 10.656 335.564 10.144C335.286 9.632 334.918 9.22667 334.46 8.928C334.001 8.62933 333.494 8.48 332.94 8.48C332.385 8.48 331.878 8.63467 331.42 8.944C330.972 9.25333 330.609 9.664 330.332 10.176C330.054 10.6773 329.916 11.2427 329.916 11.872ZM338.951 4.32H340.039V14.112C340.039 14.528 340.114 14.8 340.263 14.928C340.412 15.056 340.594 15.12 340.807 15.12C340.999 15.12 341.191 15.0987 341.383 15.056C341.575 15.0133 341.74 14.9707 341.879 14.928L342.071 15.808C341.868 15.8933 341.618 15.9627 341.319 16.016C341.031 16.0693 340.78 16.096 340.567 16.096C340.076 16.096 339.682 15.952 339.383 15.664C339.095 15.376 338.951 14.9813 338.951 14.48V4.32ZM342.703 11.856C342.703 11.0667 342.863 10.3467 343.183 9.696C343.513 9.03467 343.967 8.50667 344.543 8.112C345.119 7.71733 345.775 7.52 346.511 7.52C347.204 7.52 347.823 7.70667 348.367 8.08C348.921 8.44267 349.353 8.88533 349.663 9.408V4.32H350.751V14.688C350.751 14.8373 350.783 14.9493 350.847 15.024C350.911 15.088 351.007 15.1253 351.135 15.136V16C350.921 16.032 350.756 16.0427 350.639 16.032C350.415 16.0213 350.217 15.9307 350.047 15.76C349.876 15.5893 349.791 15.4027 349.791 15.2V14.384C349.46 14.928 349.012 15.36 348.447 15.68C347.881 16 347.295 16.16 346.687 16.16C346.111 16.16 345.577 16.0427 345.087 15.808C344.607 15.5733 344.185 15.2533 343.823 14.848C343.471 14.4427 343.193 13.984 342.991 13.472C342.799 12.9493 342.703 12.4107 342.703 11.856ZM349.663 13.136V10.56C349.524 10.176 349.3 9.82933 348.991 9.52C348.681 9.2 348.329 8.94933 347.935 8.768C347.551 8.576 347.167 8.48 346.783 8.48C346.335 8.48 345.929 8.576 345.567 8.768C345.204 8.94933 344.889 9.2 344.623 9.52C344.367 9.84 344.169 10.2027 344.031 10.608C343.892 11.0133 343.823 11.4293 343.823 11.856C343.823 12.304 343.897 12.7307 344.047 13.136C344.207 13.5413 344.431 13.904 344.719 14.224C345.007 14.5333 345.337 14.7733 345.711 14.944C346.084 15.1147 346.489 15.2 346.927 15.2C347.204 15.2 347.492 15.1467 347.791 15.04C348.089 14.9333 348.372 14.7893 348.639 14.608C348.916 14.416 349.145 14.192 349.327 13.936C349.508 13.68 349.62 13.4133 349.663 13.136ZM360.846 16.16C360.248 16.16 359.694 16.048 359.182 15.824C358.68 15.5893 358.243 15.2747 357.87 14.88C357.507 14.4747 357.224 14.016 357.022 13.504C356.819 12.9813 356.718 12.432 356.718 11.856C356.718 11.2587 356.819 10.704 357.022 10.192C357.224 9.66933 357.512 9.21067 357.886 8.816C358.259 8.41067 358.696 8.096 359.198 7.872C359.71 7.63733 360.264 7.52 360.862 7.52C361.459 7.52 362.008 7.63733 362.51 7.872C363.011 8.096 363.448 8.41067 363.822 8.816C364.195 9.21067 364.483 9.66933 364.686 10.192C364.888 10.704 364.99 11.2587 364.99 11.856C364.99 12.432 364.888 12.9813 364.686 13.504C364.483 14.016 364.195 14.4747 363.822 14.88C363.459 15.2747 363.022 15.5893 362.51 15.824C362.008 16.048 361.454 16.16 360.846 16.16ZM357.822 11.872C357.822 12.4907 357.955 13.056 358.222 13.568C358.499 14.0693 358.867 14.4693 359.326 14.768C359.784 15.056 360.291 15.2 360.846 15.2C361.4 15.2 361.907 15.0507 362.366 14.752C362.824 14.4533 363.192 14.048 363.47 13.536C363.747 13.0133 363.886 12.448 363.886 11.84C363.886 11.2213 363.747 10.656 363.47 10.144C363.192 9.632 362.824 9.22667 362.366 8.928C361.907 8.62933 361.4 8.48 360.846 8.48C360.291 8.48 359.784 8.63467 359.326 8.944C358.878 9.25333 358.515 9.664 358.238 10.176C357.96 10.6773 357.822 11.2427 357.822 11.872ZM366.729 12.56V7.664H367.817V12.368C367.817 13.3173 367.977 14.0267 368.297 14.496C368.628 14.9653 369.113 15.2 369.753 15.2C370.18 15.2 370.591 15.1093 370.985 14.928C371.391 14.736 371.748 14.4693 372.057 14.128C372.367 13.776 372.601 13.3707 372.761 12.912V7.664H373.849V14.688C373.849 14.8373 373.881 14.9493 373.945 15.024C374.009 15.088 374.105 15.1253 374.233 15.136V16C374.105 16.0107 374.004 16.016 373.929 16.016C373.855 16.0267 373.785 16.032 373.721 16.032C373.508 16.0107 373.321 15.9253 373.161 15.776C373.012 15.6267 372.932 15.4453 372.921 15.232L372.889 14.112C372.527 14.752 372.031 15.2533 371.401 15.616C370.783 15.9787 370.111 16.16 369.385 16.16C368.511 16.16 367.849 15.856 367.401 15.248C366.953 14.64 366.729 13.744 366.729 12.56ZM380.309 15.6C380.224 15.632 380.091 15.6907 379.909 15.776C379.728 15.8613 379.509 15.936 379.253 16C378.997 16.064 378.72 16.096 378.421 16.096C378.112 16.096 377.819 16.0373 377.541 15.92C377.275 15.8027 377.061 15.6267 376.901 15.392C376.741 15.1467 376.661 14.848 376.661 14.496V8.528H375.509V7.664H376.661V4.848H377.749V7.664H379.669V8.528H377.749V14.192C377.771 14.4907 377.877 14.7147 378.069 14.864C378.272 15.0133 378.501 15.088 378.757 15.088C379.056 15.088 379.328 15.04 379.573 14.944C379.819 14.8373 379.968 14.7627 380.021 14.72L380.309 15.6Z" fill="#807D7E"/>
</svg>
